# OBJ written from C:\Users\Talia_BEAST\Desktop\Blood\Wk_1_Oct_31st\Fri_Nov_5th_DAY6\3D\Tree_1.obj
# Units	meters

o Mesh
v 0 -0.00326268 -0.3575
v -0.0925278 -0.00326268 -0.345318
v -0.17875 -0.00326268 -0.309604
v -0.252791 -0.00326268 -0.252791
v -0.309604 -0.00326268 -0.17875
v -0.345318 -0.00326268 -0.0925278
v -0.3575 -0.00326268 0
v -0.345318 -0.00326268 0.0925278
v -0.309604 -0.00326268 0.17875
v -0.252791 -0.00326268 0.252791
v -0.17875 -0.00326268 0.309604
v -0.0925278 -0.00326268 0.345318
v 0 -0.00326268 0.3575
v 0.0925278 -0.00326268 0.345318
v 0.17875 -0.00326268 0.309604
v 0.252791 -0.00326268 0.252791
v 0.309604 -0.00326268 0.17875
v 0.345318 -0.00326268 0.0925278
v 0.3575 -0.00326268 0
v 0.345318 -0.00326268 -0.0925278
v 0.309604 -0.00326268 -0.17875
v 0.252791 -0.00326268 -0.252791
v 0.17875 -0.00326268 -0.309604
v 0.0925278 -0.00326268 -0.345318
v 0 10.2522 -0.0243994
v -0.00631502 10.2522 -0.023568
v -0.0121997 10.2522 -0.0211305
v -0.017253 10.2522 -0.017253
v -0.0211305 10.2522 -0.0121997
v -0.023568 10.2522 -0.00631502
v -0.0243994 10.2522 0
v -0.023568 10.2522 0.00631502
v -0.0211305 10.2522 0.0121997
v -0.017253 10.2522 0.017253
v -0.0121997 10.2522 0.0211305
v -0.00631502 10.2522 0.023568
v 0 10.2522 0.0243994
v 0.00631502 10.2522 0.023568
v 0.0121997 10.2522 0.0211305
v 0.017253 10.2522 0.017253
v 0.0211305 10.2522 0.0121997
v 0.023568 10.2522 0.00631502
v 0.0243994 10.2522 0
v 0.023568 10.2522 -0.00631502
v 0.0211305 10.2522 -0.0121997
v 0.017253 10.2522 -0.017253
v 0.0121997 10.2522 -0.0211305
v 0.00631502 10.2522 -0.023568
v -0.034925 8.255 -0.118143
v -0.0655027 8.255 -0.114118
v -0.0939966 8.255 -0.102315
v -0.118465 8.255 -0.0835398
v -0.13724 8.255 -0.0590716
v -0.149043 8.255 -0.0305777
v -0.153068 8.255 0
v -0.149043 8.255 0.0305777
v -0.13724 8.255 0.0590716
v -0.118465 8.255 0.0835398
v -0.0939966 8.255 0.102315
v -0.0655027 8.255 0.114118
v -0.034925 8.28516 0.118143
v -0.0043473 8.28516 0.114118
v 0.0241466 8.255 0.102315
v 0.0486148 8.255 0.0835398
v 0.06739 8.255 0.0590716
v 0.0791925 8.255 0.0305777
v 0.0832182 8.255 0
v 0.0791925 8.255 -0.0305777
v 0.06739 8.255 -0.0590716
v 0.0486148 8.255 -0.0835398
v 0.0241466 8.255 -0.102315
v -0.0043473 8.255 -0.114118
v -0.126387 2.159 -0.16318
v -0.052036 2.159 -0.172969
v -0.19567 2.159 -0.134482
v -0.255166 2.159 -0.0888297
v -0.300818 2.159 -0.0293344
v -0.329516 2.12407 0.0399494
v -0.339305 2.159 0.1143
v -0.329516 2.159 0.188651
v -0.300818 2.159 0.257934
v -0.255166 2.159 0.31743
v -0.19567 2.159 0.363082
v -0.126387 2.159 0.39178
v -0.052036 2.159 0.401569
v 0.0223146 2.159 0.39178
v 0.0915984 2.159 0.363082
v 0.151094 2.159 0.31743
v 0.196746 2.159 0.257934
v 0.225444 2.159 0.188651
v 0.235233 2.159 0.1143
v 0.225444 2.159 0.0399494
v 0.196746 2.159 -0.0293344
v 0.151094 2.159 -0.0888297
v 0.0915984 2.159 -0.134482
v 0.0223146 2.159 -0.16318
v 0.024567 6.61699 -0.153944
v -0.0148817 6.60966 -0.148853
v -0.0517158 6.60282 -0.133587
v -0.0834031 6.59694 -0.109164
v -0.107754 6.59242 -0.0772402
v -0.123077 6.58958 -0.0399986
v -0.128306 6.58861 0
v -0.123077 6.58958 0.0399986
v -0.107754 6.59242 0.0772402
v -0.0834031 6.59694 0.109164
v -0.0517158 6.60282 0.133587
v -0.0148817 6.60966 0.148853
v 0.024567 6.61699 0.153944
v 0.0639338 6.62429 0.148544
v 0.100544 6.63109 0.133052
v 0.131926 6.63692 0.108547
v 0.155971 6.64138 0.0767052
v 0.171071 6.64418 0.0396897
v 0.176218 6.64514 0
v 0.171071 6.64418 -0.0396897
v 0.155971 6.64138 -0.0767052
v 0.131926 6.63692 -0.108547
v 0.100544 6.63109 -0.133052
v 0.0639338 6.62429 -0.148544
v -0.012604 7.27399 -0.134828
v 0.0235304 7.27387 -0.139587
v -0.0462746 7.2741 -0.120881
v -0.0751872 7.2742 -0.0986976
v -0.0973721 7.27428 -0.0697889
v -0.111318 7.27433 -0.0361251
v -0.116074 7.27434 0
v -0.111318 7.27433 0.0361251
v -0.0973721 7.27428 0.0697889
v -0.0751872 7.2742 0.0986976
v -0.0462746 7.2741 0.120881
v -0.012604 7.27399 0.134828
v 0.0235304 7.27387 0.139587
v 0.0596661 7.27374 0.134833
v 0.0933405 7.27363 0.12089
v 0.122258 7.27353 0.098708
v 0.144448 7.27346 0.0697979
v 0.158398 7.27341 0.0361303
v 0.163156 7.27339 0
v 0.158398 7.27341 -0.0361303
v 0.144448 7.27346 -0.0697979
v 0.122258 7.27353 -0.098708
v 0.0933405 7.27363 -0.12089
v 0.0596661 7.27374 -0.134833
v 0.021775 3.55173 -0.232005
v -0.0412114 3.50644 -0.223744
v -0.0999907 3.50122 -0.199517
v -0.150531 3.53641 -0.160949
v -0.189354 3.53296 -0.110658
v -0.213777 3.53079 -0.0520825
v -0.222111 3.53005 0.0107612
v -0.213777 3.53079 0.0735547
v -0.189354 3.53296 0.131984
v -0.150531 3.53641 0.18204
v -0.0999907 3.5409 0.220305
v -0.0412114 3.54613 0.244178
v 0.021775 3.55173 0.25206
v 0.0846668 3.55732 0.243448
v 0.143188 3.56252 0.218965
v 0.193376 3.56698 0.180304
v 0.231846 3.5704 0.130109
v 0.256011 3.57255 0.0717908
v 0.26425 3.57328 0.00929842
v 0.256011 3.57255 -0.0531444
v 0.231846 3.5704 -0.111317
v 0.193376 3.56698 -0.161281
v 0.143188 3.56252 -0.19964
v 0.0846668 3.55732 -0.223771
v -0.110745 1.16013 -0.21557
v -0.0277912 1.15155 -0.227196
v -0.187916 1.1681 -0.182985
v -0.254085 1.17494 -0.131699
v -0.304795 1.18018 -0.0652221
v -0.336646 1.18348 0.0119311
v -0.347504 1.1846 0.0945419
v -0.336646 1.18348 0.177034
v -0.304795 1.18018 0.253839
v -0.254085 1.17494 0.319762
v -0.187916 1.1681 0.370325
v -0.110745 1.16013 0.402067
v -0.0277912 1.15155 0.412786
v 0.0553075 1.14296 0.401698
v 0.132874 1.13494 0.369505
v 0.199582 1.12805 0.31836
v 0.250832 1.12275 0.251736
v 0.283078 1.11942 0.174186
v 0.294081 1.11828 0.0910362
v 0.283078 1.11942 0.00800642
v 0.250832 1.12275 -0.0691907
v 0.199582 1.12805 -0.135255
v 0.132874 1.13494 -0.185671
v 0.0553075 1.14296 -0.217016
v 0.110213 5.71416 -0.173676
v 0.117594 5.35972 -0.182412
v 0.070155 5.3598 -0.176149
v 0.0652112 5.71425 -0.167756
v 0.0259505 5.35987 -0.157822
v 0.0232769 5.71434 -0.150404
v -0.0120077 5.35994 -0.128679
v -0.0127327 5.71441 -0.122803
v -0.0411333 5.35999 -0.0907068
v -0.0403638 5.71447 -0.0868345
v -0.0594417 5.36003 -0.046493
v -0.0577333 5.7145 -0.0449487
v -0.0656859 5.36005 0.000949781
v -0.0636578 5.71452 0
v -0.0594404 5.36005 0.0483888
v -0.0577333 5.7145 0.0449487
v -0.0411308 5.36002 0.0925917
v -0.0403638 5.71447 0.0868345
v -0.0120045 5.35998 0.130546
v -0.0127327 5.71441 0.122803
v 0.025954 5.35992 0.159667
v 0.0232769 5.71434 0.150404
v 0.0701585 5.35985 0.177968
v 0.0652112 5.71425 0.167756
v 0.117597 5.35977 0.184202
v 0.110213 5.71416 0.173676
v 0.165036 5.35969 0.177945
v 0.155214 5.71407 0.16776
v 0.209244 5.35962 0.159621
v 0.197149 5.71399 0.150411
v 0.247207 5.35955 0.13048
v 0.23316 5.71392 0.122811
v 0.276338 5.35949 0.0925066
v 0.260792 5.71386 0.0868411
v 0.29465 5.35946 0.0482893
v 0.278162 5.71383 0.0449525
v 0.300896 5.35944 0.000841629
v 0.284087 5.71382 0
v 0.29465 5.35944 -0.0466024
v 0.278162 5.71383 -0.0449525
v 0.276337 5.35947 -0.090809
v 0.260792 5.71386 -0.0868411
v 0.247206 5.35951 -0.128765
v 0.23316 5.71392 -0.122811
v 0.209242 5.35957 -0.157884
v 0.197149 5.71399 -0.150411
v 0.165034 5.35964 -0.176182
v 0.155214 5.71407 -0.16776
v -0.0253203 5.46377 0.112701
v -0.0246549 5.61057 0.107777
v 0.0262285 5.4161 0.159262
v 0.0229937 5.65021 0.150804
v 0.0913935 5.46368 0.180061
v 0.0850873 5.61047 0.171068
v -0.0439257 5.52665 0.168666
v -0.043656 5.61498 0.165532
v -0.00182051 5.47958 0.206754
v -0.00395819 5.65522 0.201553
v 0.0517116 5.52778 0.223704
v 0.0476343 5.6161 0.218256
v -0.252238 5.92997 0.635638
v -0.252354 5.94667 0.634695
v -0.250755 5.92131 0.648998
v -0.251014 5.95452 0.648093
v -0.238342 5.93073 0.643316
v -0.238883 5.94743 0.642757
v -0.140456 5.65732 0.453046
v -0.165354 5.69349 0.440872
v -0.102875 5.67427 0.44734
v -0.128179 5.73745 0.426076
v -0.160343 5.73217 0.427851
v -0.0975647 5.71574 0.433381
v 0.246824 4.17269 0.11745
v 0.269009 4.17368 0.0638847
v 0.211518 4.17111 0.163512
v 0.165483 4.16906 0.198936
v 0.252189 4.38843 0.112916
v 0.27366 4.38873 0.0610563
v 0.218029 4.38794 0.157486
v 0.173504 4.3873 0.191729
v 0.243123 4.20057 0.11488
v 0.256385 4.22808 0.0968722
v 0.207111 4.19931 0.160892
v 0.196038 4.22597 0.175604
v 0.251972 4.35515 0.112491
v 0.259027 4.33777 0.0949852
v 0.218248 4.35475 0.157184
v 0.200915 4.33709 0.17082
v 0.286162 4.24511 0.156169
v 0.293423 4.26259 0.139141
v 0.258924 4.24478 0.190979
v 0.246088 4.26215 0.200485
v 0.289616 4.33135 0.152093
v 0.295542 4.31378 0.137374
v 0.263971 4.33151 0.186086
v 0.250076 4.31416 0.197014
v 0.885256 4.65358 0.466649
v 0.887007 4.65987 0.462542
v 0.878686 4.6535 0.475045
v 0.87559 4.65976 0.477338
v 0.886089 4.67645 0.465666
v 0.887518 4.67014 0.462115
v 0.879903 4.67649 0.473865
v 0.876552 4.67023 0.476501
v 0.157252 6.40601 -0.112115
v 0.124144 6.40705 -0.137293
v 0.182725 6.40464 -0.0792923
v 0.198826 6.40306 -0.0410537
v 0.166569 6.58799 -0.0556301
v 0.158277 6.60765 -0.0762244
v 0.134556 6.60487 -0.108041
v 0.115752 6.58203 -0.122906
v 0.156544 6.46019 -0.110692
v 0.136047 6.49712 -0.126545
v 0.181512 6.45931 -0.077876
v 0.190191 6.49526 -0.056794
v 0.221998 6.57767 -0.0987278
v 0.214298 6.59737 -0.117871
v 0.191501 6.59448 -0.148501
v 0.174395 6.57166 -0.162052
v 0.206132 6.49199 -0.150134
v 0.187895 6.52805 -0.164369
v 0.229725 6.49246 -0.118794
v 0.237656 6.5289 -0.0993252
v 0.556982 6.89872 -0.573536
v 0.555613 6.90754 -0.576826
v 0.551561 6.90704 -0.582089
v 0.548521 6.89769 -0.584417
v 0.554162 6.884 -0.582369
v 0.55092 6.89221 -0.584815
v 0.558355 6.88408 -0.576984
v 0.559765 6.89235 -0.573639
v 0.43872 6.79734 -0.383588
v 0.376107 6.7292 -0.302775
v 0.363074 6.75654 -0.312647
v 0.429749 6.82048 -0.392917
v 0.357845 6.78882 -0.314579
v 0.427467 6.8459 -0.396598
v 0.369391 6.81057 -0.30478
v 0.436601 6.86505 -0.389343
v 0.389427 6.81668 -0.287367
v 0.452037 6.86965 -0.375863
v 0.399204 6.80121 -0.278659
v 0.459403 6.85526 -0.368832
v 0.406342 6.76651 -0.275352
v 0.463341 6.82789 -0.363764
v 0.3969 6.73445 -0.284838
v 0.455002 6.80131 -0.369578
v -0.133562 3.75979 -0.156996
v -0.0846896 3.7873 -0.194451
v -0.0278117 3.78975 -0.218017
v 0.0331829 3.76698 -0.2261
v -0.00309234 3.5944 -0.249468
v -0.0402999 3.56309 -0.244562
v -0.0798819 3.56097 -0.228175
v -0.109711 3.58768 -0.205367
v -0.101095 3.70104 -0.203364
v -0.0721111 3.72031 -0.225607
v -0.0334919 3.72102 -0.241658
v 0.00270554 3.70364 -0.246473
v -0.139052 3.8902 -0.846986
v -0.14542 3.88021 -0.84438
v -0.154599 3.88034 -0.832672
v -0.159691 3.8902 -0.820707
v -0.158914 3.90095 -0.820162
v -0.153896 3.90726 -0.831972
v -0.144803 3.907 -0.843585
v -0.138525 3.90056 -0.846164
v -0.103892 3.80227 -0.622357
v -0.0801097 3.76218 -0.493749
v -0.0565104 3.7443 -0.497915
v -0.0862921 3.78604 -0.624373
v -0.0599045 3.66767 -0.499148
v -0.0871807 3.72631 -0.619022
v -0.0841831 3.63729 -0.494962
v -0.105048 3.69894 -0.614018
v -0.112288 3.64058 -0.490355
v -0.127051 3.70327 -0.609793
v -0.132599 3.67461 -0.487154
v -0.142465 3.73552 -0.608617
v -0.127581 3.75062 -0.485907
v -0.139654 3.79422 -0.614707
v -0.107653 3.76506 -0.489117
v -0.125108 3.80592 -0.61853
v -0.0858354 2.78924 0.321508
v -0.149946 2.8194 0.29485
v -0.0170365 2.8194 0.330675
v -0.0768674 2.99879 0.305967
v -0.139834 2.96545 0.27976
v -0.00929621 2.96545 0.314997
v -0.103626 2.81079 0.387534
v -0.163334 2.84109 0.362625
v -0.0387287 2.84052 0.396287
v -0.095501 2.99385 0.375022
v -0.155078 2.96067 0.350266
v -0.0324183 2.96007 0.383445
v -0.15835 2.97945 0.597306
v -0.177924 2.99466 0.584595
v -0.133899 2.99387 0.596642
v -0.15508 3.03125 0.593254
v -0.175719 3.01474 0.580278
v -0.131985 3.01391 0.592297
v -0.287939 2.31775 -0.0387307
v -0.316122 2.3495 0.029299
v -0.325735 2.31775 0.102312
v -0.34611 2.18528 -0.0245059
v -0.367744 2.15074 0.0277746
v -0.375106 2.18598 0.0838792
v -0.337094 2.29641 -0.0310848
v -0.358368 2.32854 0.0203184
v -0.365607 2.29711 0.075487
v -0.804835 2.61186 -0.201037
v -0.813164 2.59116 -0.180909
v -0.815998 2.61202 -0.159309
v -0.801364 2.63731 -0.20357
v -0.809554 2.65629 -0.18378
v -0.812341 2.63747 -0.16254
v -0.641732 2.35237 -0.0369176
v -0.623798 2.42067 -0.0367055
v -0.616051 2.45018 -0.0747031
v -0.62056 2.433 -0.118704
v -0.637943 2.3668 -0.118484
v -0.648123 2.32803 -0.0812731
v 0.266112 1.6129 0.102093
v 0.25572 1.64306 0.0231695
v 0.225249 1.6129 -0.0503386
v 0.277244 1.41605 0.0976924
v 0.266633 1.38112 0.0171209
v 0.235524 1.41605 -0.0579098
v 0.286831 1.59262 0.081491
v 0.27915 1.62278 0.0228465
v 0.256315 1.59262 -0.0323451
v 0.295668 1.43633 0.0779976
v 0.287653 1.40141 0.017444
v 0.264474 1.43633 -0.038357
v 0.776667 1.66904 0.0623066
v 0.775108 1.68653 0.0504017
v 0.770472 1.66904 0.0391978
v 0.778461 1.63731 0.0615974
v 0.776834 1.61706 0.049305
v 0.772128 1.63731 0.0379774
v 1.0016 1.7832 0.031005
v 1.00039 1.79225 0.0217685
v 0.996792 1.7832 0.0130758
v 1.00299 1.77582 0.0304548
v 1.00173 1.76534 0.0209176
v 0.998077 1.77582 0.012129
v 0.511175 1.49746 0.0469379
v 0.511175 1.5761 0.0504419
v 0.511175 1.5961 0.0770474
v 0.511175 1.57337 0.106934
v 0.511175 1.49136 0.105216
v 0.511175 1.46748 0.0740266
v 0.469328 6.87598 -0.409413
v 0.476357 6.86281 -0.404397
v 0.454769 6.87169 -0.419802
v 0.485531 6.8819 -0.440849
v 0.491645 6.86962 -0.436471
v 0.472771 6.87826 -0.449987
v 0.579192 6.9279 -0.440231
v 0.584963 6.92554 -0.436897
v 0.57181 6.93036 -0.442889
v 0.587595 6.93049 -0.453102
v 0.593095 6.92827 -0.449981
v 0.580552 6.93283 -0.455597
v -0.137555 5.70929 0.376622
v -0.105034 5.72213 0.384241
v -0.0699464 5.69679 0.392462
v -0.110516 5.68213 0.315837
v -0.072237 5.70042 0.324963
v -0.0310204 5.67008 0.33479
v -0.122861 5.73129 0.369384
v -0.10287 5.74116 0.373349
v -0.0735143 5.72184 0.379966
v -0.104734 5.71349 0.32791
v -0.0745332 5.72594 0.335831
v -0.0480857 5.70453 0.342395
v -0.100346 5.94845 0.458508
v -0.0923939 5.95238 0.460085
v -0.0807161 5.94469 0.462717
v -0.0931353 5.94137 0.442009
v -0.0811214 5.94633 0.44516
v -0.0706006 5.93781 0.447771
v -0.0974963 5.84951 0.394029
v -0.0776559 5.85 0.403742
v -0.0620287 5.84899 0.38384
v -0.078195 5.84843 0.372783
v -0.0978686 5.84837 0.371633
v -0.110605 5.84951 0.394088
v 0.341094 6.75616 -0.240589
v 0.330098 6.75127 -0.267449
v 0.308967 6.73096 -0.27394
v 0.300555 6.70539 -0.201354
v 0.280435 6.70251 -0.22663
v 0.269137 6.68382 -0.240824
v 0.328252 6.77279 -0.242629
v 0.326148 6.77106 -0.259183
v 0.307363 6.75761 -0.262227
v 0.299652 6.73687 -0.214936
v 0.285047 6.73416 -0.234092
v 0.28105 6.72574 -0.239967
v 0.309752 6.96493 -0.334124
v 0.311914 6.96335 -0.339846
v 0.30542 6.9619 -0.339757
v 0.306051 6.9588 -0.329355
v 0.302546 6.9583 -0.334379
v 0.301872 6.95644 -0.336098
v 0.322127 6.87721 -0.324369
v 0.306379 6.87713 -0.327986
v 0.290941 6.87718 -0.322305
v 0.292994 6.87722 -0.316739
v 0.301657 6.87732 -0.304588
v 0.320406 6.87727 -0.310996
v -0.0352355 3.72969 -0.407577
v -0.0424942 3.64522 -0.422633
v -0.0631865 3.74724 -0.402235
v -0.044318 3.76715 -0.512897
v -0.0345024 3.76627 -0.515515
v -0.015149 3.71959 -0.521562
v -0.0141673 3.75953 -0.470667
v 0.00188049 3.71055 -0.484841
v -0.0275519 3.76182 -0.466728
v -0.0134818 3.7763 -0.507871
v -0.00869631 3.77316 -0.509992
v 0.000383806 3.75743 -0.513704
v 0.000907641 3.77052 -0.486751
v 0.00844465 3.75476 -0.494596
v -0.00433493 3.77442 -0.484284
v 0.58865 4.39404 0.36615
v 0.461759 4.31406 0.29432
v 0.471209 4.3334 0.281803
v 0.597798 4.4125 0.356124
v 0.47176 4.37368 0.279396
v 0.601097 4.44627 0.35552
v 0.463676 4.38963 0.290093
v 0.594979 4.46057 0.364628
v 0.441952 4.38983 0.319089
v 0.576389 4.46008 0.387972
v 0.433629 4.37426 0.330315
v 0.568477 4.44563 0.396594
v 0.431919 4.33352 0.334319
v 0.564096 4.41145 0.398742
v 0.439313 4.31418 0.324325
v 0.5694 4.39351 0.390553
v -0.0283042 8.12562 0.120572
v -0.0595105 8.14388 0.116464
v 0.00290208 8.12562 0.116464
v 0.0319817 8.14388 0.104418
v -0.0487337 8.255 0.147173
v -0.0381 8.28517 0.148722
v -0.00733864 8.28518 0.144965
v 0.00468411 8.25502 0.14014
v -0.0314792 8.16371 0.150318
v -0.0447958 8.18197 0.148714
v -0.00045658 8.16371 0.145941
v 0.00983556 8.18196 0.141523
v -0.00410749 8.43348 0.43039
v -0.00213197 8.44967 0.431575
v 0.00238859 8.45032 0.429279
v 0.00433991 8.43473 0.426034
v -0.00150152 8.41508 0.431968
v -0.00361803 8.41474 0.43092
v 0.00302363 8.41572 0.429314
v 0.00487878 8.41598 0.426015
v 0.00449967 8.32909 0.293334
v -0.0022526 8.34248 0.293623
v -0.0195796 8.34072 0.294366
v -0.0255006 8.32569 0.29462
v -0.0235185 8.28002 0.294535
v -0.0161629 8.26059 0.29422
v 0.00135526 8.26318 0.293469
v 0.00719253 8.28452 0.293218
v -0.0212237 8.02503 -0.123169
v -0.0531231 8.04129 -0.118964
v -0.0828447 8.04165 -0.106654
v -0.108364 8.02609 -0.0870776
v -0.0472418 7.89174 -0.121267
v -0.014714 7.91577 -0.125557
v -0.077547 7.89228 -0.108715
v -0.103566 7.91735 -0.088758
v -0.07475 8.02047 -0.168897
v -0.0867546 8.03649 -0.167118
v -0.116307 8.03685 -0.154477
v -0.123608 8.02107 -0.148655
v -0.0801994 7.93011 -0.169313
v -0.0708226 7.95455 -0.170338
v -0.110696 7.93065 -0.157114
v -0.120712 7.95543 -0.149669
v -0.155367 8.08245 -0.279984
v -0.158728 8.08659 -0.279486
v -0.167002 8.08661 -0.275947
v -0.169047 8.08249 -0.274317
v -0.156892 8.07126 -0.280101
v -0.154267 8.07765 -0.280388
v -0.165432 8.0713 -0.276685
v -0.168236 8.07771 -0.274601
vn 0 -1 0
vn 0 1 0
vn -0.256997 0.0290196 -0.965976
vn -0.258463 0.0513963 -0.964653
vn 1.39399e-05 0.0468866 -0.9989
vn 0.00176539 0.0344734 -0.999404
vn -0.498218 0.0236458 -0.86673
vn -0.499214 0.0555958 -0.864693
vn -0.705632 0.0193153 -0.708316
vn -0.705858 0.0591997 -0.705875
vn -0.865907 0.0161356 -0.499945
vn -0.864357 0.0619636 -0.499047
vn -0.965829 0.0140329 -0.258801
vn -0.963963 0.0637003 -0.258298
vn -0.999911 0.0133159 0
vn -0.997931 0.0642925 0
vn -0.965829 0.0140329 0.258801
vn -0.963963 0.0637003 0.258298
vn -0.865907 0.0161356 0.499945
vn -0.864357 0.0619636 0.499047
vn -0.706963 0.0194819 0.706982
vn -0.705858 0.0591997 0.705875
vn -0.499849 0.0238441 0.865784
vn -0.499214 0.0555958 0.864693
vn -0.31619 0.0341909 0.94808
vn -0.282008 0.0518712 0.958009
vn -0.0244421 0.048023 0.998547
vn 0.277163 0.0426218 0.959877
vn 0.648867 0.052584 0.759082
vn 0.516243 0.0378684 0.855604
vn 0.690782 0.160027 0.705132
vn 0.706237 0.0492078 0.706264
vn 0.70669 0.0345524 0.706679
vn 0.864822 0.052528 0.499324
vn 0.86559 0.0317779 0.499744
vn 0.964482 0.0546117 0.258442
vn 0.965491 0.0300335 0.2587
vn 0.998469 0.0553218 0
vn 0.999567 0.0294384 0
vn 0.964482 0.0546117 -0.258442
vn 0.965491 0.0300335 -0.2587
vn 0.864822 0.052528 -0.499324
vn 0.86559 0.0317779 -0.499744
vn 0.706237 0.0492078 -0.706264
vn 0.70669 0.0345524 -0.706679
vn 0.499481 0.0448717 -0.865162
vn 0.499644 0.0381669 -0.865389
vn 0.258602 0.0398114 -0.965163
vn 0.258598 0.0423741 -0.965055
vn 0.257618 -0.0195966 -0.966048
vn 0.257491 0.0220882 -0.966028
vn 0.498969 0.0185446 -0.866421
vn 0.498967 -0.0283295 -0.866158
vn 0.70652 0.0157354 -0.707519
vn 0.706269 -0.0329498 -0.707176
vn 0.865717 0.0138782 -0.500341
vn 0.865389 -0.0331564 -0.500003
vn 0.965791 0.0130931 -0.258991
vn 0.965499 -0.0289209 -0.258796
vn 0.99991 0.0134415 1.06396e-05
vn 0.99979 -0.0205121 -8.28531e-06
vn 0.0143766 0.0714242 0.997342
vn 0.259601 0.0569997 0.964032
vn 0.259997 0.0292049 0.965168
vn -0.0077127 0.0285466 0.999563
vn -0.259658 0.0863348 0.961834
vn -0.214409 0.0362048 0.976073
vn -0.51091 0.0951348 0.854353
vn -0.49876 0.0352732 0.866022
vn -0.703255 0.0979026 0.704164
vn -0.735959 0.0499208 0.675184
vn -0.8617 0.0980384 0.497857
vn -0.847891 0.0370151 0.528877
vn -0.961661 0.0937026 0.257737
vn -0.964848 0.0460023 0.258751
vn -0.996237 0.0862494 0.00853552
vn -0.998965 0.0454877 2.67056e-05
vn -0.964993 0.0439321 -0.258572
vn -0.964093 0.0738661 -0.255085
vn -0.865407 0.0414607 -0.499351
vn -0.861994 0.057585 -0.503638
vn -0.259927 0.00922154 -0.965584
vn -0.260029 0.0139277 -0.9655
vn -7.22628e-06 0.02197 -0.999759
vn -1.39718e-05 0.0218216 -0.999762
vn -0.501703 -0.00271676 -0.865036
vn -0.501883 0.00616698 -0.864913
vn -0.708631 -0.0131052 -0.705457
vn -0.708872 -0.00045785 -0.705337
vn -0.866793 -0.0211518 -0.49822
vn -0.867084 -0.00559518 -0.49813
vn -0.965879 -0.0262353 -0.257662
vn -0.966207 -0.00883156 -0.257616
vn -0.999609 -0.0279714 0
vn -0.999951 -0.00993265 0
vn -0.966207 -0.00883156 0.257616
vn -0.965879 -0.0262353 0.257662
vn -0.867084 -0.00559518 0.49813
vn -0.866793 -0.0211518 0.49822
vn -0.708872 -0.000457848 0.705337
vn -0.708631 -0.0131052 0.705457
vn -0.501883 0.00617834 0.864913
vn -0.501703 -0.00271676 0.865036
vn -0.259927 0.00922154 0.965584
vn -0.260029 0.0138746 0.965501
vn -1.39718e-05 0.0218216 0.999762
vn -7.64717e-06 0.0220645 0.999757
vn 0.259789 0.034182 0.96506
vn 0.25995 0.0298493 0.965161
vn 0.501251 0.0454663 0.864106
vn 0.501615 0.0368446 0.864306
vn 0.707722 0.0549619 0.70435
vn 0.708313 0.0428436 0.704598
vn 0.866196 0.0473437 0.497457
vn 0.865391 0.0621153 0.497232
vn 0.965054 0.0501118 0.257214
vn 0.964097 0.0665423 0.257079
vn 0.998697 0.0510406 0
vn 0.997683 0.0680368 0
vn 0.944048 0.0631813 -0.323701
vn 0.965054 0.0501118 -0.257214
vn 0.866857 0.0392476 -0.49701
vn 0.866196 0.0473437 -0.497457
vn 0.709674 0.0315473 -0.703823
vn 0.708313 0.0428436 -0.704598
vn 0.480376 0.0375737 -0.876257
vn 0.501615 0.0368446 -0.864306
vn 0.259788 0.0342034 -0.96506
vn 0.25995 0.0296904 -0.965165
vn 0.258361 0.0381836 -0.965294
vn -0.000134675 0.0232332 -0.99973
vn -0.00162882 0.00576896 -0.999982
vn -0.260283 0.010086 -0.96548
vn -0.191305 -0.179139 -0.965045
vn 0.0599124 -0.0977995 -0.993401
vn -0.501006 0.0161237 -0.865294
vn -0.50713 -0.119007 -0.853614
vn -0.707495 0.0234282 -0.70633
vn -0.731497 0.00815322 -0.681795
vn 0.996692 0.0812659 3.18985e-05
vn 0.962819 0.0796756 0.258132
vn -0.864348 0.0584284 0.499488
vn -0.964527 0.0533685 0.258534
vn 0.863545 0.0743845 0.498756
vn -0.705182 0.0616779 0.706338
vn 0.705461 0.0657112 0.705696
vn 0.499171 0.0542007 0.864806
vn 0.258602 0.0405879 0.965131
vn -0.00877105 0.0223297 0.999712
vn -0.216029 0.000426534 0.976387
vn -0.461673 -0.00945479 0.887
vn 0.500491 0.0479561 0.864412
vn 0.500469 0.0402501 0.864819
vn 0.259919 0.0541788 0.964109
vn 0.707103 0.0407132 0.705938
vn 0.707402 0.0229694 0.706438
vn -0.695536 -0.0277513 0.717955
vn 0.865764 0.0329549 0.499367
vn 0.866183 0.00634422 0.499687
vn -0.829164 -0.0188445 0.558687
vn -0.96538 -0.0316507 0.258919
vn 0.965649 0.0252099 0.258622
vn 0.965918 -0.00848652 0.25871
vn -0.999421 -0.0340233 8.91579e-06
vn 0.999825 0.0178899 0.00555546
vn 0.965638 0.0126625 -0.259581
vn -0.965361 -0.0323502 -0.258905
vn 0.862637 0.0078601 -0.505763
vn -0.865571 -0.0267433 -0.500071
vn -0.706746 -0.017644 -0.707247
vn 0.70654 0.00373791 -0.707663
vn -0.499597 -0.00570942 -0.866239
vn 0.498958 0.00246977 -0.866623
vn -0.25868 0.00826134 -0.965928
vn 0.257361 0.00314445 -0.96631
vn 0.166423 -0.0814499 -0.982685
vn -0.257517 0.103032 -0.960765
vn -0.259593 0.0748428 -0.962814
vn -0.00163214 0.0829435 -0.996553
vn -4.68204e-05 0.112023 -0.993706
vn -0.500085 0.0638973 -0.863616
vn -0.498084 0.0892741 -0.862521
vn -0.706815 0.0508656 -0.705567
vn -0.705352 0.071669 -0.705225
vn -0.864916 0.0513958 -0.499278
vn -0.86568 0.0366351 -0.499255
vn -0.843342 0.024098 -0.536836
vn -0.965507 0.0298224 -0.258663
vn -0.965728 0.022266 -0.258601
vn -0.965893 0.0147088 -0.258523
vn -0.999964 0.00851646 3.45807e-05
vn -0.998343 0.0374049 0.0437212
vn -0.999965 0.00841367 1.14157e-05
vn -0.965867 -0.0113677 0.258789
vn -0.965885 -0.00370676 0.258944
vn -0.865738 -0.0134039 0.500318
vn -0.865695 -0.0281787 0.499778
vn -0.706386 -0.0200425 0.707543
vn -0.706535 -0.040898 0.706496
vn -0.499421 -0.0486842 0.86499
vn -0.498811 -0.0231828 0.866401
vn -0.497939 0.0628906 0.864929
vn -0.25848 -0.0510162 0.964668
vn -0.257298 -0.0226049 0.966068
vn -0.256832 0.0633226 0.964379
vn 1.88921e-05 -0.0477183 0.998861
vn 0.00160684 -0.0183219 0.999831
vn 0.00166784 0.0603296 0.998177
vn 0.260246 -0.0105838 0.965484
vn 0.25865 -0.038973 0.965185
vn 0.499862 -0.025323 0.865735
vn 0.501034 0.000127843 0.865427
vn 0.707606 0.0131174 0.706485
vn 0.707093 -0.00765708 0.707079
vn 0.865893 0.0275098 0.499473
vn 0.865945 0.0128308 0.499974
vn 0.965331 0.0347159 0.258711
vn 0.965085 0.0423062 0.258498
vn 0.998405 0.0564495 7.77887e-05
vn 0.998405 0.056454 2.26123e-05
vn 0.963121 0.0764795 -0.257971
vn 0.963492 0.0710411 -0.258139
vn 0.862286 0.093395 -0.497736
vn 0.863034 0.0809491 -0.498617
vn 0.70317 0.106048 -0.703069
vn 0.703975 0.0855232 -0.705057
vn 0.496793 0.113618 -0.860399
vn 0.497017 0.0885212 -0.863214
vn 0.257077 0.115641 -0.959447
vn 0.256379 0.0876212 -0.962597
vn 0.00218361 0.0260114 -0.999659
vn -0.256333 0.0304093 -0.96611
vn -0.505713 0.0349214 -0.861995
vn -0.711411 0.0384958 -0.701721
vn 0.500667 0.0248801 0.865282
vn 0.707322 0.0208797 0.706583
vn 0.866033 0.0174839 0.499681
vn 0.965833 0.0149413 0.258732
vn 0.962843 0.0790806 -0.258223
vn 0.863532 0.0732154 -0.498951
vn 0.705427 0.0640209 -0.705885
vn 0.498999 0.0520987 -0.865035
vn 0.00566411 -0.288219 0.957548
vn -0.0115789 -0.180822 0.983448
vn 0.25674 -0.60434 0.754227
vn -0.0872053 0.0177253 0.996033
vn -0.820967 -0.190852 0.538135
vn -0.723789 0.00982799 0.689951
vn -0.83 -0.293941 0.474024
vn -0.777255 -0.605332 0.171606
vn -0.994731 -0.00494704 0.1024
vn -0.988506 -0.00966087 -0.15087
vn -0.981897 -0.187134 -0.0293265
vn -0.950558 -0.264899 0.162075
vn 0.787912 0.0713206 0.611644
vn 0.815792 0.0716696 0.573887
vn -0.426551 0.849553 -0.310344
vn -0.3871 0.825504 -0.410726
vn 0.489424 0.85417 0.175664
vn 0.545167 0.831549 0.106395
vn -0.950035 -0.00616253 -0.312083
vn -0.933984 -0.00881439 -0.357206
vn 0.376592 -0.221001 0.899632
vn 0.570896 -0.131699 0.810391
vn 0.659934 0.0473183 0.749832
vn 0.398341 0.0281043 0.916807
vn -0.421373 0.00746842 0.906857
vn -0.805834 -0.577266 0.131893
vn 0.351844 -0.554229 0.754344
vn -0.188696 0.766842 -0.613471
vn -0.149347 0.664436 -0.732271
vn 0.600653 0.779018 -0.179851
vn 0.594474 0.714231 -0.369425
vn -0.917306 -0.0126003 -0.397983
vn 0.8499 0.066917 0.522677
vn 0.946711 0.0268291 0.320964
vn 0.862681 0.0789255 0.499552
vn 0.706021 0.043455 0.706857
vn 0.557421 0.00534889 0.830213
vn 0.86619 -0.0114595 0.499583
vn 0.947098 -0.0151818 0.320585
vn 0.60962 0.00737312 0.79266
vn 0.366892 -0.205379 0.907309
vn 0.531187 -0.142554 0.835176
vn 0.704173 -0.00135998 0.710027
vn 0.707718 -0.00485909 0.706479
vn 0.867334 -0.0141808 0.497525
vn 0.557242 0.00519989 0.830334
vn 0.929362 -0.018 0.36873
vn 0.921838 0.0707571 0.381062
vn 0.852067 0.168244 0.495658
vn 0.924621 -0.012842 0.380672
vn 0.866191 -0.011891 0.499571
vn 0.707725 -0.00812443 0.706442
vn 0.610219 0.000254039 0.792233
vn 0.61034 0.000563741 0.792139
vn 0.702573 0.088602 0.706075
vn -0.448212 0.0580759 0.892039
vn -0.272905 -0.236405 0.932542
vn -0.399867 -0.123398 0.908229
vn -0.52974 0.0789778 0.844475
vn -0.0650985 -0.502733 0.861987
vn -0.179805 -0.564978 0.805276
vn -0.285162 -0.376032 0.881636
vn 0.488303 -0.79481 0.36033
vn 0.368408 -0.888802 0.272594
vn 0.800755 -0.546534 -0.245135
vn 0.827786 -0.304803 -0.471026
vn 0.768025 -0.439927 -0.465404
vn 0.712368 -0.614197 -0.33955
vn 0.763601 -0.0294846 -0.645014
vn 0.703445 -0.0413708 -0.709544
vn 0.778761 -0.222427 -0.586564
vn 0.741244 0.601336 -0.298248
vn 0.550853 0.663258 -0.506605
vn 0.317853 0.915158 0.247903
vn 0.0621703 0.996874 0.0487479
vn -0.116344 0.675933 0.727722
vn -0.344874 0.720003 0.60221
vn 0.314582 -0.920104 0.233338
vn 0.459184 -0.818787 0.344583
vn 0.524404 -0.753017 0.397449
vn -0.232859 -0.537428 0.810523
vn -0.0454349 -0.426012 0.903576
vn 0.13858 -0.10648 0.98461
vn -0.142384 -0.260097 0.955027
vn -0.549519 0.108376 0.828422
vn -0.585859 0.293901 0.755243
vn -0.238672 -0.16687 0.956656
vn -0.124705 -0.155073 0.980001
vn -0.317605 0.0999583 0.94294
vn -0.405671 0.109017 0.907495
vn -0.568133 0.671716 0.475418
vn -0.587755 0.626931 0.511373
vn -0.581191 0.478386 0.658304
vn -0.590674 0.626691 0.508294
vn -0.272659 0.93984 -0.205809
vn -0.409322 0.85878 -0.308144
vn -0.47221 0.804916 -0.359343
vn 0.224098 0.637682 -0.736981
vn 0.0248821 0.55767 -0.82969
vn -0.0813289 0.510352 -0.856111
vn 0.586128 -0.0554666 -0.808318
vn 0.637389 -0.253716 -0.727573
vn 0.460231 -0.0561329 -0.886023
vn 0.385257 -0.0541125 -0.921221
vn 0.627294 -0.640654 -0.442792
vn 0.656137 -0.597285 -0.461232
vn 0.64831 -0.4402 -0.621223
vn 0.667138 -0.582723 -0.46407
vn 0.522539 0.241562 -0.81768
vn 0.66465 0.17157 -0.727189
vn 0.499827 0.0564123 -0.864286
vn 0.704235 0.0597816 -0.707445
vn 0.761241 0.0936556 -0.64167
vn 0.862904 0.0649722 -0.501174
vn 0.736774 0.0913115 -0.669945
vn 0.923806 0.0861041 -0.373053
vn 0.874151 0.0778254 -0.479379
vn 0.865313 0.0570816 -0.497972
vn 0.873781 0.0589824 -0.48273
vn 0.86335 0.0270253 -0.503881
vn 0.703922 0.0313548 -0.709585
vn 0.501175 0.0439229 -0.864231
vn 0.50476 0.0427123 -0.862202
vn 0.708606 0.0412755 -0.704396
vn 0.750808 -0.459498 0.474498
vn 0.813394 -0.415797 0.406821
vn 0.357843 -0.885667 -0.295876
vn 0.475338 -0.800077 -0.365964
vn -0.307179 -0.514183 -0.800785
vn -0.441122 -0.314235 -0.840635
vn -0.406054 -0.301931 -0.86253
vn -0.242599 -0.477478 -0.844489
vn -0.548814 -0.0955881 -0.830461
vn -0.545552 -0.109644 -0.830874
vn -0.315897 0.686395 -0.655035
vn 0.0776366 0.986507 -0.144139
vn 0.494644 0.719355 0.487705
vn 0.591248 0.459107 0.663058
vn 0.439037 0.472181 0.76439
vn 0.206739 0.73546 0.645258
vn 0.62411 0.149363 0.766927
vn 0.603397 0.16334 0.780533
vn 0.530772 -0.759695 -0.375691
vn 0.427814 -0.868276 -0.251141
vn 0.375374 -0.90952 -0.178514
vn 0.873028 -0.357573 0.331608
vn 0.87346 -0.172514 0.455309
vn 0.883153 -0.346236 0.316484
vn 0.887747 -0.345091 0.304659
vn 0.913948 -0.0708219 0.399603
vn 0.887884 -0.0682537 0.454976
vn 0.665995 0.201898 0.718114
vn 0.616464 0.331995 0.713969
vn -0.665886 -0.328698 -0.669742
vn -0.754937 -0.155304 -0.637143
vn -0.808212 -0.154773 -0.568189
vn -0.739876 -0.326733 -0.588072
vn -0.481236 -0.310513 -0.819752
vn -0.314288 -0.46608 -0.827038
vn -0.550216 -0.489984 -0.67615
vn -0.645915 -0.487376 -0.587587
vn -0.622287 -0.139893 -0.770188
vn -0.792736 0.50665 -0.338933
vn -0.795914 0.605161 -0.0173524
vn -0.768931 0.637734 0.0451724
vn -0.376099 0.919192 0.116775
vn -0.627472 0.746557 0.221206
vn -0.448749 0.800962 0.396338
vn 0.71499 0.406219 0.569013
vn 0.591384 0.577485 0.562828
vn 0.198464 0.651499 0.73223
vn 0.461896 0.446306 0.766461
vn 0.823626 -0.0842628 0.560838
vn -0.976686 -0.0943074 -0.192846
vn -0.982389 0.0770586 -0.170215
vn -0.84182 0.0621408 -0.53617
vn -0.888809 -0.100924 -0.447027
vn -0.719276 0.101407 -0.687284
vn -0.52259 0.163991 -0.836664
vn -0.623373 0.0376117 -0.781019
vn -0.225657 0.189941 -0.955511
vn -0.427143 0.0366487 -0.903441
vn 0.0018113 0.128606 -0.991694
vn 0.149839 0.0976359 -0.983878
vn -0.117217 -0.329356 -0.936902
vn 0.351668 -0.171729 -0.920238
vn -0.507677 -0.231529 -0.829855
vn -0.721942 -0.0321686 -0.691205
vn -0.722341 0.135967 -0.678039
vn -0.527103 0.270978 -0.80544
vn -0.191937 0.335176 -0.922398
vn 0.298578 0.168863 -0.939328
vn 0.240901 0.118133 -0.963333
vn 0.240558 -0.0922185 -0.966244
vn 0.444731 0.859567 0.251712
vn 0.465792 0.830632 0.305105
vn 0.223364 0.896332 0.383011
vn 0.216485 0.922318 0.320099
vn -0.43485 0.879132 0.195019
vn -0.19931 0.962568 0.183679
vn -0.190579 0.950234 0.246443
vn -0.490592 0.83231 0.25803
vn -0.519987 0.768428 0.373003
vn -0.496359 0.756382 0.426045
vn -0.991662 0.0734985 0.105854
vn -0.991776 0.0663527 0.109439
vn -0.994583 -0.100248 0.0274888
vn -0.981788 -0.187303 -0.0317686
vn -0.991127 0.0597615 0.118728
vn -0.720755 -0.676712 -0.150241
vn -0.817862 -0.556447 -0.146523
vn -0.665738 -0.701422 -0.25456
vn -0.890088 -0.418859 -0.179724
vn -0.0657593 -0.957017 -0.28248
vn -0.160405 -0.920403 -0.35655
vn -0.2584 -0.82765 -0.498222
vn -0.262438 -0.780138 -0.567901
vn 0.865466 -0.317854 -0.387217
vn 0.666555 -0.563399 -0.488145
vn 0.661817 -0.529164 -0.531021
vn 0.861328 -0.298862 -0.410848
vn 0.968431 -0.0364972 -0.246596
vn 0.969057 -0.037783 -0.243929
vn 0.645889 0.744698 0.168087
vn 0.676008 0.707487 0.206098
vn 0.300506 0.934978 0.188446
vn 0.613356 0.779126 0.129447
vn 0.969674 -0.0390685 -0.241261
vn 0.868804 -0.33661 -0.363144
vn 0.746088 -0.560142 -0.359991
vn 0.630156 -0.673997 -0.385528
vn -0.365526 -0.880537 -0.301738
vn -0.965594 -0.259364 -0.0189576
vn 0.21413 0.95899 0.185708
vn -0.256907 0.120601 0.958882
vn -0.496175 0.123204 0.859436
vn 0.000138289 0.109419 0.993996
vn -0.642387 0.227913 0.731707
vn -0.262845 0.121895 0.957107
vn -0.523785 0.126727 0.842371
vn -0.0196548 0.0791867 0.996666
vn 0.0261409 0.10525 0.994102
vn -0.479132 -0.85902 0.180324
vn -0.519455 -0.792226 0.320224
vn 0.330647 -0.867285 0.372142
vn 0.291323 -0.805846 0.515503
vn 0.947783 -0.016038 0.318512
vn 0.92701 -0.00876843 0.374934
vn 0.410212 0.887876 0.208332
vn 0.443915 0.890043 0.103745
vn -0.448443 0.891978 -0.0572211
vn -0.419707 0.89378 -0.158123
vn -0.977015 0.0461437 -0.208117
vn -0.986436 0.0521191 -0.155649
vn 0.244461 -0.723558 0.645525
vn 0.902837 -0.0014667 0.429981
vn 0.472255 0.881459 -0.00209586
vn -0.38635 0.885742 -0.257284
vn -0.99302 0.0579445 -0.102734
vn -0.546449 -0.705104 0.451908
vn -0.859822 0.0396556 -0.509052
vn -0.9654 0.0656793 -0.252368
vn -0.953664 0.0730877 -0.291861
vn -0.936089 0.0364618 -0.349869
vn -0.996035 0.0873228 0.0170173
vn -0.966457 0.109347 -0.232388
vn -0.463684 -0.699001 -0.544421
vn -0.368936 -0.727547 -0.578413
vn -0.607288 -0.746876 0.270882
vn -0.601997 -0.731176 0.320907
vn -0.593649 0.110935 0.797041
vn -0.480109 0.106792 0.870684
vn -0.576421 0.774397 0.26086
vn -0.296378 0.812508 -0.501986
vn -0.133234 -0.0477848 -0.989932
vn 0.0652882 -0.064245 -0.995796
vn -0.406973 0.108867 0.906929
vn -0.454979 0.116722 0.882819
vn 0.300783 0.769265 0.563703
vn 0.387349 0.688259 0.6134
vn 0.209246 0.837558 0.504691
vn 0.640598 0.702903 -0.309132
vn 0.769564 0.564213 -0.299057
vn 0.48859 0.81631 -0.308088
vn 0.299122 -0.0848829 -0.950432
vn 0.336543 -0.0914748 -0.937215
vn -0.369281 -0.655368 -0.658881
vn -0.460577 -0.548703 -0.697706
vn -0.735515 -0.571016 0.364634
vn -0.846538 -0.405719 0.344624
vn 0.998358 0.0562076 0.0110686
vn 0.963554 0.0633652 -0.259901
vn 0.901958 0.241657 -0.357873
vn 0.758882 0.197643 -0.620512
vn 0.966105 0.190458 -0.174262
vn 0.975486 0.122917 -0.182534
vn 0.963835 0.0656006 -0.258299
vn 0.998405 0.0564585 -3.25612e-05
vn 0.980264 0.0547967 -0.189944
vn 0.771812 0.0674715 -0.632261
vn 0.964697 -0.12303 0.232858
vn 0.965201 0.0488368 0.256908
vn 0.643095 0.73974 0.198025
vn 0.89923 0.041114 0.43554
vn 0.71707 0.0249769 0.696554
vn 0.948418 -0.280785 0.147182
vn 0.799154 -0.582782 0.147373
vn 0.59363 -0.606801 -0.52858
vn 0.491251 -0.660297 -0.568049
vn 0.530481 0.238617 -0.81342
vn 0.42358 0.0568847 -0.904071
vn 0.817887 0.3272 -0.473287
vn 0.456874 0.708953 -0.537263
vn 0.512522 0.519402 -0.683771
vn -0.169271 0.673954 0.71912
vn -0.00472813 0.356571 0.934256
vn -0.00379655 0.282002 0.959406
vn -0.151925 0.546762 0.82339
vn 0.252886 -0.184254 0.949789
vn 0.291781 -0.267428 0.918339
vn 0.324247 -0.333087 0.885391
vn 0.446671 -0.606047 0.658174
vn 0.412281 -0.49661 0.763809
vn 0.241769 -0.549082 -0.800035
vn 0.0774152 -0.271692 -0.959266
vn 0.0270019 -0.21731 -0.975729
vn 0.184101 -0.446819 -0.875477
vn -0.196985 0.225777 -0.954055
vn -0.266045 0.316601 -0.910485
vn -0.238643 0.380571 -0.893429
vn -0.347251 0.668817 -0.657344
vn -0.371502 0.568532 -0.734001
vn 0.129035 0.049468 -0.990405
vn -0.0467745 0.816237 -0.575821
vn -0.0940887 0.842362 0.530635
vn -0.00473687 0.888996 0.457891
vn 0.0287565 -0.024924 0.999276
vn -0.115073 -0.0287024 0.992942
vn 0.307679 -0.79779 0.518522
vn 0.134035 -0.86599 0.481763
vn 0.339144 -0.674299 -0.655975
vn 0.791092 0.398338 0.464221
vn 0.687381 0.570965 0.448896
vn -0.357472 0.927047 0.11313
vn -0.391684 0.918754 0.049736
vn 0.714256 0.521753 0.466489
vn 0.800447 0.371197 0.470636
vn -0.0374402 0.911671 0.409213
vn 0.196667 0.928258 0.315688
vn 0.196682 0.928252 0.315698
vn -0.110407 0.95592 0.272078
vn -0.376413 0.926173 -0.0227286
vn -0.295345 0.954859 0.0318706
vn 0.0358784 0.844309 0.534654
vn 0.196651 0.928265 0.315678
vn -0.644206 0.72962 -0.229465
vn -0.780334 0.509634 -0.362425
vn 0.0536947 -0.31143 -0.948751
vn 0.400798 -0.893238 -0.203683
vn -0.539379 0.829697 -0.14378
vn -0.513709 0.85609 -0.0566823
vn -0.434558 0.898429 0.0631261
vn -0.453576 0.887877 -0.0770921
vn -0.223111 0.849196 -0.47863
vn 0.759958 0.607295 0.231641
vn 0.582702 0.812509 0.0169491
vn -0.599217 0.597096 -0.533306
vn -0.342922 0.791375 -0.506093
vn -0.0953142 0.748665 -0.656061
vn -0.229641 0.853967 -0.46691
vn 0.596321 0.801928 0.036231
vn 0.763728 0.598945 0.2408
vn 0.538205 0.840243 0.0657795
vn -0.87089 0.167755 -0.461963
vn 0.852645 0.20268 0.481577
vn -0.381622 0.508649 0.771778
vn -0.123698 0.51258 0.849683
vn 0.143208 0.479293 0.865892
vn 0.825258 0.441107 0.352666
vn 0.826166 0.435133 0.357923
vn 0.847744 0.122636 0.516033
vn 0.486451 0.411183 -0.770905
vn 0.266428 0.414596 -0.87013
vn 0.277631 0.356305 -0.89217
vn 0.466042 0.349865 -0.81265
vn 0.0308808 0.393851 -0.918655
vn 0.0777374 0.347839 -0.934326
vn -0.751174 0.410238 -0.517148
vn -0.832411 0.268107 -0.484985
vn -0.205261 -0.361614 0.909452
vn -0.35667 -0.340093 0.870128
vn -0.374085 -0.48788 0.788691
vn -0.188731 -0.523964 0.830568
vn -0.328991 -0.182519 0.926527
vn -0.214972 -0.189504 0.958058
vn 0.774215 -0.2193 0.593716
vn 0.729946 -0.344179 0.590524
vn 0.277732 0.443037 -0.852398
vn 0.260844 0.578949 -0.772514
vn 0.464058 0.535539 -0.705584
vn 0.458258 0.415351 -0.785801
vn 0.0859475 0.45399 -0.886852
vn 0.0993784 0.705231 -0.701978
vn -0.833959 0.292357 -0.468017
vn -0.793182 0.387892 -0.469471
vn 0.00368482 -0.540445 0.841372
vn -0.0480252 -0.374154 0.926122
vn -0.0979338 -0.193828 0.976135
vn -0.705531 0.689605 0.16331
vn -0.581679 0.791254 0.188594
vn -0.697582 0.710964 0.088934
vn -0.708346 0.669645 0.223208
vn -0.708331 0.647011 0.282214
vn -0.355772 0.738634 0.572578
vn -0.523592 0.599094 0.605754
vn -0.80215 0.492182 0.338101
vn -0.698702 0.698424 0.154986
vn -0.741338 0.461334 0.487431
vn -0.63485 0.67553 0.375
vn -0.423348 0.792332 0.439302
vn -0.697172 0.530599 0.482096
vn -0.185383 0.859605 0.476143
vn -0.782134 0.620469 -0.0573152
vn -0.908502 0.40486 -0.103503
vn -0.0240027 0.796187 0.604574
vn 0.129861 0.547247 0.826836
vn -0.122129 0.671198 0.731148
vn -0.0691012 0.801033 0.594618
vn -0.671946 0.0496947 -0.738931
vn 0.747842 0.528095 -0.402304
vn 0.924332 0.260715 -0.278637
vn -0.0730201 0.371899 -0.925397
vn -0.783356 0.268933 -0.560382
vn -0.764492 0.220314 -0.605817
vn -0.87487 0.452867 0.171794
vn -0.846873 0.271123 0.457492
vn -0.908224 0.235838 0.345702
vn -0.702119 0.514479 0.492281
vn -0.770646 0.301678 0.561334
vn 0.249474 0.45911 0.852632
vn 0.505439 -0.860902 0.0581365
vn -0.280808 0.831512 0.479307
vn -0.127795 0.692093 0.710405
vn -0.296365 0.896044 0.330566
vn -0.235198 0.959319 0.156169
vn 0.335976 -0.294725 -0.894571
vn 0.0370955 -0.313023 -0.949021
vn -0.0628216 -0.1459 -0.987303
vn 0.222102 -0.146855 -0.963901
vn 0.136408 -0.469119 -0.872537
vn 0.436532 -0.430912 -0.789781
vn -0.264502 -0.302387 -0.915752
vn -0.342611 -0.133021 -0.930013
vn -0.177138 -0.461173 -0.869449
vn -0.862735 0.246742 0.44137
vn -0.922948 0.182485 0.338921
vn -0.924343 0.204481 0.322145
vn -0.783856 0.284194 0.55209
vn 0.229364 0.409474 0.883019
vn 0.31134 0.277635 0.908838
vn 0.998308 0.0581312 0.00168039
vn 0.98035 0.152251 0.125429
vn 0.691876 0.68929 -0.214912
vn 0.807274 0.522543 -0.27433
vn 0.971138 -0.0451201 -0.234214
vn 0.995894 -0.0896166 0.0127777
vn 0.43703 0.89845 0.0423428
vn 0.49921 0.827737 0.256203
vn 0.256154 0.941753 0.217913
vn 0.248277 0.963105 0.103858
vn 0.545584 0.825259 -0.145898
vn 0.584096 -0.744641 -0.323021
vn 0.616347 -0.693392 -0.37326
vn 0.585894 -0.737643 -0.335577
vn -0.440572 -0.138694 -0.886939
vn -0.387055 -0.308325 -0.868979
vn -0.27285 -0.0378047 -0.961313
vn 0.0709148 0.977923 0.196566
vn -0.179882 0.96393 0.196165
vn 0.439218 0.628745 0.641692
vn 0.86775 -0.0490177 0.494579
vn 0.756791 -0.50102 -0.419817
vn -0.480009 0.0353698 -0.87655
vn -0.202763 0.105337 -0.973546
vn 0.56162 0.449478 0.694659
vn 0.547757 0.288585 0.78529
vn 0.322182 0.513994 0.79499
vn 0.742961 0.156021 0.650896
vn 0.717578 0.0338018 0.695658
vn 0.860595 -0.228242 -0.455282
vn 0.0929675 0.1657 -0.981784
vn -0.0868371 0.800882 -0.592493
vn -0.310369 0.924965 0.219343
vn 0.665028 -0.468805 -0.581343
vn 0.56138 -0.246103 -0.790118
vn -0.592549 0.413663 0.691208
vn -0.341615 -0.0815348 0.936297
vn -0.528093 0.391684 0.75346
vn -0.446561 -0.0825943 0.890933
vn -0.338334 -0.337355 0.878477
vn -0.139877 -0.16182 0.976857
vn -0.315415 -0.169381 0.933715
vn -0.679363 -0.164158 0.715204
vn -0.445484 0.013672 0.895185
vn 0.218461 -0.188595 0.957448
vn 0.0366624 -0.198836 0.979347
vn 0.739198 0.0187291 0.673227
vn 0.504741 0.0101357 0.863211
vn 0.543362 -0.127636 0.829739
vn 0.383367 -0.139446 0.913009
vn 0.979739 0.0442498 0.195328
vn 0.830397 -0.0763785 0.551912
vn 0.973109 -0.0566927 0.223258
vn 0.650765 -0.0786183 0.755198
vn -0.695581 0.7148 -0.0723116
vn -0.841699 0.538245 -0.0428293
vn -0.891144 -0.0385089 0.452083
vn -0.905333 -0.204031 0.372484
vn -0.973149 0.0847211 0.214018
vn -0.149997 -0.389425 0.908762
vn -0.260489 -0.665355 0.699606
vn -0.584642 -0.515825 0.626193
vn -0.0576937 -0.388428 0.919671
vn 0.289902 -0.375697 0.880232
vn 0.262735 -0.662251 0.701707
vn 0.377646 -0.367907 0.849722
vn 0.816903 -0.285941 0.500907
vn 0.442721 -0.634822 0.633245
vn 0.727484 -0.119767 0.67559
vn 0.927047 0.244448 0.284305
vn 0.903221 -0.202184 0.378567
vn 0.747729 0.188297 0.636747
vn 0.741833 0.551532 0.381438
vn 0.863308 0.494262 0.102001
vn 0.903114 0.361229 0.232163
vn -5.35953e-05 1 -0.000407097
vn -0.0223964 0.982987 -0.182302
vn 0.868914 0.409394 -0.27818
vn 0.827557 0.425316 -0.366409
vn 0.944483 0.251372 -0.211577
vn 0.956566 0.242718 -0.161459
vn 0.932407 0.356872 0.0570968
vn -0.0758542 0.868684 -0.489525
vn -0.106028 0.785228 -0.610062
vn -0.933507 0.347086 -0.0899749
vn -0.986809 0.154713 0.0476579
vn -0.986405 0.164082 0.00901356
vn -0.918055 0.358956 -0.168303
vn -0.953906 0.260731 0.148601
vn -0.915219 -0.237012 0.325881
vn -0.927097 -0.186746 0.324988
vn -0.791055 -0.41419 0.4502
vn -0.821066 -0.127816 0.556339
vn -0.814401 -0.294891 0.499791
vn 0.104863 -0.752518 0.650169
vn 0.129832 -0.666708 0.733924
vn 0.898835 -0.333931 0.283875
vn 0.982095 -0.138863 0.127305
vn 0.929551 -0.114139 0.350582
vn 0.738373 -0.454953 0.497818
vn 0.982913 0.18401 0.0047146
vn 0.978956 0.186367 0.0831449
vn 0.962922 -0.0958736 0.252168
vn 0.00351583 0.02206 -0.99975
vn -0.255402 0.00661664 -0.966812
vn -0.49671 -0.00831438 -0.867877
vn -0.704278 -0.0206215 -0.709625
vn -0.258819 0.00669155 -0.965903
vn -2.08167e-05 0.0221284 -0.999755
vn -0.0620542 0.0694766 -0.995652
vn -0.219673 0.0315372 -0.975064
vn -0.499978 -0.00795582 -0.866001
vn -0.510386 -0.0179441 -0.859758
vn -0.706951 -0.0202683 -0.706972
vn -0.637027 -0.0282106 -0.770325
vn 0.250892 -0.114943 -0.961167
vn 0.231244 0.0350272 -0.972265
vn 0.188373 0.955452 -0.227218
vn 0.386966 0.850953 -0.355157
vn 0.594318 0.746916 -0.298164
vn 0.407623 0.881343 -0.23891
vn 0.40462 0.0440708 -0.913422
vn 0.705563 -0.0499281 -0.706887
vn 0.741408 0.0587826 -0.668475
vn 0.215468 -0.258984 -0.941542
vn 0.029107 -0.717516 -0.695934
vn 0.104795 -0.639348 -0.761743
vn 0.452174 -0.402196 -0.796101
vn -0.500563 -0.811084 -0.302622
vn -0.434755 -0.784671 -0.441905
vn -0.716262 -0.695198 -0.0605696
vn -0.838381 -0.543823 -0.037058
vn -0.685786 -0.695864 -0.213239
vn -0.968755 -0.0465112 0.24362
vn -0.916925 0.145615 0.371544
vn -0.969653 -0.158408 0.186224
vn -0.491399 0.869455 0.0507553
vn -0.265663 0.963912 -0.0172371
vn -0.44834 0.876969 0.172966
vn -0.625741 0.724032 0.290217
vn 0.181122 0.982575 -0.0417359
vn -0.128716 0.98649 0.101336
vn -0.942934 -0.30713 0.128634
vn -0.964156 -0.214933 0.155587
vn -0.928323 -0.371576 -0.0121241
vn -0.868993 0.243674 0.430667
vn -0.877485 0.362807 0.313673
vn -0.699676 0.508713 0.501662
vn 0.0645798 0.990486 0.12152
vn 0.148724 0.935299 0.321087
vn 0.722032 0.552008 -0.417082
vn 0.839831 0.349144 -0.415671
vn 0.767754 0.600256 -0.224157
vn 0.795034 0.2547 -0.550499
vn 0.731358 -0.103403 -0.674109
vn 0.62257 -0.177221 -0.762233
vn 0.603885 -0.263248 -0.752345
vn -0.255371 -0.761668 -0.595522
vn -0.281847 -0.682468 -0.674388
vt 0.497861 0.717368
vt 0.497861 0.782632
vt 0.48097 0.845671
vt 0.448338 0.90219
vt 0.40219 0.948338
vt 0.345671 0.98097
vt 0.282632 0.997861
vt 0.217368 0.997861
vt 0.154329 0.98097
vt 0.0978096 0.948338
vt 0.0516617 0.90219
vt 0.0190301 0.845671
vt 0.00213878 0.782632
vt 0.00213879 0.717368
vt 0.0190301 0.654329
vt 0.0516617 0.59781
vt 0.0978097 0.551662
vt 0.154329 0.51903
vt 0.217368 0.502139
vt 0.282632 0.502139
vt 0.345671 0.51903
vt 0.40219 0.551662
vt 0.448338 0.59781
vt 0.48097 0.654329
vt 0.997861 0.782632
vt 0.98097 0.845671
vt 0.948338 0.90219
vt 0.90219 0.948338
vt 0.845671 0.98097
vt 0.782632 0.997861
vt 0.717368 0.997861
vt 0.654329 0.98097
vt 0.59781 0.948338
vt 0.551662 0.90219
vt 0.51903 0.845671
vt 0.502139 0.782632
vt 0.502139 0.717368
vt 0.51903 0.654329
vt 0.551662 0.59781
vt 0.59781 0.551662
vt 0.654329 0.51903
vt 0.717368 0.502139
vt 0.782632 0.502139
vt 0.845671 0.51903
vt 0.90219 0.551662
vt 0.948338 0.59781
vt 0.98097 0.654329
vt 0.997861 0.717368
vt 0.0416667 0.359286
vt 0.0416667 0.5
vt 0 0.5
vt 0 0.359286
vt 0.0833333 0.359286
vt 0.0833333 0.5
vt 0.125 0.359286
vt 0.125 0.5
vt 0.166667 0.359286
vt 0.166667 0.5
vt 0.208333 0.359286
vt 0.208333 0.5
vt 0.25 0.359286
vt 0.25 0.5
vt 0.291667 0.359286
vt 0.291667 0.5
vt 0.333333 0.359286
vt 0.333333 0.5
vt 0.375 0.359286
vt 0.375 0.5
vt 0.416667 0.359286
vt 0.416667 0.5
vt 0.458333 0.359286
vt 0.458333 0.5
vt 0.5 0.359286
vt 0.5 0.5
vt 0.541667 0.359286
vt 0.541667 0.5
vt 0.583333 0.359286
vt 0.583333 0.5
vt 0.625 0.359286
vt 0.625 0.5
vt 0.666667 0.359286
vt 0.666667 0.5
vt 0.708333 0.359286
vt 0.708333 0.5
vt 0.75 0.359286
vt 0.75 0.5
vt 0.791667 0.359286
vt 0.791667 0.5
vt 0.833333 0.359286
vt 0.833333 0.5
vt 0.875 0.359286
vt 0.875 0.5
vt 0.916667 0.359286
vt 0.916667 0.5
vt 0.958333 0.359286
vt 0.958333 0.5
vt 1 0.359286
vt 1 0.5
vt 0.958333 0.173595
vt 0.958333 0.261467
vt 0.916667 0.261463
vt 0.916667 0.173849
vt 0.875 0.26146
vt 0.875 0.174066
vt 0.833333 0.261458
vt 0.833333 0.174233
vt 0.791667 0.261457
vt 0.791667 0.174338
vt 0.75 0.261457
vt 0.75 0.174373
vt 0.5 0.173322
vt 0.541667 0.173595
vt 0.541667 0.261469
vt 0.5 0.261473
vt 0.458333 0.173049
vt 0.458333 0.261477
vt 0.416667 0.172795
vt 0.416667 0.26148
vt 0.375 0.172576
vt 0.375 0.261483
vt 0.333333 0.172407
vt 0.333333 0.261485
vt 0.291667 0.172302
vt 0.291667 0.261486
vt 0.25 0.172265
vt 0.25 0.261487
vt 0.208333 0.261486
vt 0.208333 0.172302
vt 0.166667 0.261484
vt 0.166667 0.172407
vt 0.0416667 0.305308
vt 0.0416667 0.327102
vt 0 0.327098
vt 0 0.305548
vt 0.0833333 0.305083
vt 0.0833333 0.327106
vt 0.125 0.30489
vt 0.125 0.327109
vt 0.166667 0.304742
vt 0.166667 0.327112
vt 0.208333 0.304649
vt 0.208333 0.327113
vt 0.25 0.304617
vt 0.25 0.327114
vt 0.291667 0.327113
vt 0.291667 0.304649
vt 0.333333 0.327112
vt 0.333333 0.304742
vt 0.375 0.327109
vt 0.375 0.30489
vt 0.416667 0.327106
vt 0.416667 0.305083
vt 0.458333 0.305308
vt 0.458333 0.327102
vt 0.5 0.305548
vt 0.5 0.327098
vt 0.541667 0.305788
vt 0.541667 0.327094
vt 0.583333 0.306011
vt 0.583333 0.32709
vt 0.625 0.306202
vt 0.625 0.327087
vt 0.666667 0.327085
vt 0.666667 0.306348
vt 0.708333 0.327083
vt 0.708333 0.30644
vt 0.75 0.327083
vt 0.75 0.306472
vt 0.791667 0.30644
vt 0.791667 0.327083
vt 0.833333 0.306348
vt 0.833333 0.327085
vt 0.875 0.306202
vt 0.875 0.327087
vt 0.916667 0.306011
vt 0.916667 0.32709
vt 0.958333 0.305788
vt 0.958333 0.327094
vt 1 0.305548
vt 1 0.327098
vt 0.958333 0.275926
vt 1 0.275929
vt 0 0.10542
vt 0.0416667 0.10542
vt 0.0416667 0.173049
vt 0 0.173322
vt 0.0833333 0.10542
vt 0.0833333 0.172795
vt 0.125 0.10542
vt 0.125 0.172576
vt 0.75 0.275918
vt 0.708333 0.275918
vt 0.333333 0.10542
vt 0.291667 0.10542
vt 0.666667 0.275919
vt 0.375 0.10542
vt 0.625 0.275921
vt 0.583333 0.275923
vt 0.541667 0.275926
vt 0.5 0.275929
vt 0.458333 0.275932
vt 0.416667 0.275935
vt 0.583333 0.10542
vt 0.583333 0.173849
vt 0.541667 0.10542
vt 0.625 0.10542
vt 0.625 0.174066
vt 0.375 0.275937
vt 0.666667 0.10542
vt 0.666667 0.174233
vt 0.333333 0.275939
vt 0.291667 0.27594
vt 0.708333 0.10542
vt 0.708333 0.174338
vt 0.25 0.275941
vt 0.75 0.10542
vt 0.791667 0.10542
vt 0.208333 0.27594
vt 0.833333 0.10542
vt 0.166667 0.275939
vt 0.125 0.275937
vt 0.875 0.10542
vt 0.0833333 0.275935
vt 0.916667 0.10542
vt 0.0416667 0.275932
vt 0.958333 0.10542
vt 1 0.10542
vt 1 0.173322
vt 0 0.275929
vt 0.0416667 0
vt 0.0416667 0.0567206
vt 0 0.0563026
vt 0 0
vt 0.0833333 0.0571095
vt 0.0833333 0
vt 0.125 0.057443
vt 0.125 0
vt 0.166667 0
vt 0.166667 0.0576986
vt 0.166667 0.10542
vt 0.208333 0
vt 0.208333 0.0578591
vt 0.208333 0.10542
vt 0.25 0.0579138
vt 0.25 0.10542
vt 0.25 0
vt 0.291667 0
vt 0.291667 0.0578591
vt 0.333333 0.0576986
vt 0.333333 0
vt 0.375 0.057443
vt 0.375 0
vt 0.416667 0
vt 0.416667 0.0571095
vt 0.416667 0.10542
vt 0.458333 0
vt 0.458333 0.0567206
vt 0.458333 0.10542
vt 0.5 0
vt 0.5 0.0563026
vt 0.5 0.10542
vt 0.541667 0.0558838
vt 0.541667 0
vt 0.583333 0
vt 0.583333 0.0554929
vt 0.625 0.0551567
vt 0.625 0
vt 0.666667 0.0548984
vt 0.666667 0
vt 0.708333 0
vt 0.708333 0.0547359
vt 0.75 0
vt 0.75 0.0546805
vt 0.791667 0
vt 0.791667 0.0547359
vt 0.833333 0
vt 0.833333 0.0548984
vt 0.875 0
vt 0.875 0.0551567
vt 0.916667 0
vt 0.916667 0.0554929
vt 0.958333 0
vt 0.958333 0.0558838
vt 1 0
vt 1 0.0563026
vt 0 0.26147
vt 0.0416667 0.261474
vt 0.0833333 0.261478
vt 0.125 0.261481
vt 0.583333 0.261465
vt 0.625 0.261462
vt 0.666667 0.26146
vt 0.708333 0.261458
vt 0.791667 0.275918
vt 0.833333 0.275919
vt 0.875 0.275921
vt 0.916667 0.275923
vt 1 0.26147
vt 0.416667 0.270609
vt 0.490871 0.270603
vt 0.490871 0.266801
vt 0.342462 0.270614
vt 0.342462 0.26681
vt 0.416666 0.266806
vt 0.708333 0.203645
vt 0.666667 0.203597
vt 0.625 0.20352
vt 0.583333 0.20342
vt 0.666667 0.214115
vt 0.708333 0.21413
vt 0.597071 0.200333
vt 0.597071 0.217191
vt 0.624971 0.217258
vt 0.625009 0.200354
vt 0.625 0.214091
vt 0.666646 0.217335
vt 0.666673 0.200377
vt 0.583333 0.21406
vt 0.694595 0.217367
vt 0.694595 0.200388
vt 0.798381 0.305252
vt 0.833326 0.305296
vt 0.833314 0.299634
vt 0.798381 0.299711
vt 0.916667 0.298661
vt 0.875 0.298626
vt 0.874994 0.30534
vt 0.874973 0.299488
vt 0.833333 0.298582
vt 0.909953 0.305369
vt 0.909953 0.299327
vt 0.791667 0.29853
vt 0.125 0.183466
vt 0.0833333 0.183569
vt 0.0416667 0.183689
vt 0 0.183817
vt 1 0.183817
vt 0.458333 0.137618
vt 0.416667 0.137618
vt 0.5 0.137618
vt 0.40873 0.128388
vt 0.40873 0.153969
vt 0.458333 0.153969
vt 0.458333 0.128388
vt 0.458333 0.144739
vt 0.416667 0.144739
vt 0.507937 0.153969
vt 0.507937 0.128388
vt 0.5 0.144739
vt 0.458333 0.141825
vt 0.420874 0.141825
vt 0.495793 0.141825
vt 0.495793 0.140531
vt 0.458333 0.140531
vt 0.420874 0.140531
vt 0.166667 0.11316
vt 0.208333 0.11316
vt 0.25 0.11316
vt 0.75 0.0787955
vt 0.791667 0.0787955
vt 0.833333 0.0787955
vt 0.828042 0.0744898
vt 0.828042 0.0735038
vt 0.791667 0.0735038
vt 0.791667 0.0744898
vt 0.791667 0.0691981
vt 0.75 0.0691981
vt 0.755292 0.0735038
vt 0.755292 0.0744898
vt 0.833333 0.0691981
vt 0.342462 0.257548
vt 0.416667 0.276068
vt 0.416666 0.257544
vt 0.490872 0.276063
vt 0.833295 0.294072
vt 0.874995 0.305051
vt 0.87495 0.293925
vt 0.909978 0.30489
vt 0.0037613 0.180044
vt 0.0037613 0.173322
vt -0.0037613 0.18759
vt 0.0416782 0.18745
vt 0.5 0.35564
vt 0.458333 0.35564
vt 0.470081 0.367388
vt 0.5 0.367388
vt 0.5 0.347538
vt 0.470081 0.347538
vt 0.541667 0.35564
vt 0.541667 0.367388
vt 0.541667 0.347538
vt 0.583333 0.35564
vt 0.571586 0.347538
vt 0.571586 0.367388
vt 0 0.351742
vt 0.0416667 0.351754
vt 0.0833333 0.351766
vt 0.125 0.351776
vt 0.0416667 0.348176
vt 0 0.348157
vt 0.0136145 0.338131
vt 0.0136145 0.361778
vt 0.0416607 0.361791
vt 0.0416707 0.33814
vt 0.0833333 0.348194
vt 0.083328 0.361808
vt 0.0833369 0.338152
vt 0.125 0.348209
vt 0.111386 0.361818
vt 0.111386 0.338158
vt 1 0.348157
vt 1 0.351742
mtllib Tree_1.mtl
usemtl Tree_1
g Default
f 1/1/1 24/2/1 23/3/1 22/4/1 21/5/1 20/6/1 19/7/1 18/8/1 17/9/1 16/10/1 15/11/1 14/12/1 13/13/1 12/14/1 11/15/1 10/16/1 9/17/1 8/18/1 7/19/1 6/20/1 5/21/1 4/22/1 3/23/1 2/24/1
f 25/25/2 26/26/2 27/27/2 28/28/2 29/29/2 30/30/2 31/31/2 32/32/2 33/33/2 34/34/2 35/35/2 36/36/2 37/37/2 38/38/2 39/39/2 40/40/2 41/41/2 42/42/2 43/43/2 44/44/2 45/45/2 46/46/2 47/47/2 48/48/2
f 50/49/3 26/50/4 25/51/5 49/52/6
f 50/49/3 51/53/7 27/54/8 26/50/4
f 52/55/9 28/56/10 27/54/8 51/53/7
f 52/55/9 53/57/11 29/58/12 28/56/10
f 54/59/13 30/60/14 29/58/12 53/57/11
f 55/61/15 31/62/16 30/60/14 54/59/13
f 56/63/17 32/64/18 31/62/16 55/61/15
f 56/63/17 57/65/19 33/66/20 32/64/18
f 58/67/21 34/68/22 33/66/20 57/65/19
f 59/69/23 35/70/24 34/68/22 58/67/21
f 59/69/23 60/71/25 36/72/26 35/70/24
f 61/73/27 37/74/27 36/72/26 60/71/25
f 61/73/27 62/75/28 38/76/28 37/74/27
f 63/77/29 39/78/30 38/76/28 62/75/28
f 63/77/31 64/79/32 40/80/33 39/78/30
f 65/81/34 41/82/35 40/80/33 64/79/32
f 65/81/34 66/83/36 42/84/37 41/82/35
f 67/85/38 43/86/39 42/84/37 66/83/36
f 67/85/38 68/87/40 44/88/41 43/86/39
f 69/89/42 45/90/43 44/88/41 68/87/40
f 69/89/42 70/91/44 46/92/45 45/90/43
f 70/91/44 71/93/46 47/94/47 46/92/45
f 72/95/48 48/96/49 47/94/47 71/93/46
f 49/97/6 25/98/5 48/96/49 72/95/48
f 168/99/50 239/100/51 237/101/52 167/102/53
f 167/102/53 237/101/52 235/103/54 166/104/55
f 166/104/55 235/103/54 233/105/56 165/106/57
f 165/106/57 233/105/56 231/107/58 164/108/59
f 164/108/59 231/107/58 229/109/60 163/110/61
f 157/111/62 158/112/63 219/113/64 217/114/65
f 156/115/66 157/111/62 217/114/65 215/116/67
f 155/117/68 156/115/66 215/116/67 213/118/69
f 154/119/70 155/117/68 213/118/69 211/120/71
f 153/121/72 154/119/70 211/120/71 209/122/73
f 152/123/74 153/121/72 209/122/73 207/124/75
f 151/125/76 152/123/74 207/124/75 205/126/77
f 151/125/76 205/126/77 203/127/78 150/128/79
f 150/128/79 203/127/78 201/129/80 149/130/81
f 98/131/82 121/132/83 122/133/84 97/134/85
f 99/135/86 123/136/87 121/132/83 98/131/82
f 100/137/88 124/138/89 123/136/87 99/135/86
f 101/139/90 125/140/91 124/138/89 100/137/88
f 102/141/92 126/142/93 125/140/91 101/139/90
f 125/140/91 126/142/93 54/59/13 53/57/11
f 103/143/94 127/144/95 126/142/93 102/141/92
f 126/142/93 127/144/95 55/61/15 54/59/13
f 128/145/96 56/63/17 55/61/15 127/144/95
f 103/143/94 104/146/97 128/145/96 127/144/95
f 129/147/98 57/65/19 56/63/17 128/145/96
f 104/146/97 105/148/99 129/147/98 128/145/96
f 130/149/100 58/67/21 57/65/19 129/147/98
f 105/148/99 106/150/101 130/149/100 129/147/98
f 131/151/102 59/69/23 58/67/21 130/149/100
f 106/150/101 107/152/103 131/151/102 130/149/100
f 107/152/103 108/153/104 132/154/105 131/151/102
f 108/153/104 109/155/106 133/156/107 132/154/105
f 109/155/106 110/157/108 134/158/109 133/156/107
f 110/157/108 111/159/110 135/160/111 134/158/109
f 111/159/110 112/161/112 136/162/113 135/160/111
f 137/163/114 65/81/34 64/79/32 136/162/113
f 112/161/112 113/164/115 137/163/114 136/162/113
f 138/165/116 66/83/36 65/81/34 137/163/114
f 113/164/115 114/166/117 138/165/116 137/163/114
f 139/167/118 67/85/38 66/83/36 138/165/116
f 114/166/117 115/168/119 139/167/118 138/165/116
f 116/169/120 140/170/121 139/167/118 115/168/119
f 139/167/118 140/170/121 68/87/40 67/85/38
f 117/171/122 141/172/123 140/170/121 116/169/120
f 140/170/121 141/172/123 69/89/42 68/87/40
f 118/173/124 142/174/125 141/172/123 117/171/122
f 141/172/123 142/174/125 70/91/44 69/89/42
f 119/175/126 143/176/127 142/174/125 118/173/124
f 142/174/125 143/176/127 71/93/46 70/91/44
f 120/177/128 144/178/129 143/176/127 119/175/126
f 143/176/127 144/178/129 72/95/48 71/93/46
f 97/179/85 122/180/84 144/178/129 120/177/128
f 240/181/130 193/182/131 97/179/85 120/177/128
f 74/183/132 73/184/133 146/185/134 145/186/135
f 73/184/133 75/187/136 147/188/137 146/185/134
f 75/187/136 76/189/138 148/190/139 147/188/137
f 230/191/140 115/168/119 114/166/117 228/192/141
f 81/193/142 153/121/72 152/123/74 80/194/143
f 228/192/141 114/166/117 113/164/115 226/195/144
f 82/196/145 154/119/70 153/121/72 81/193/142
f 226/195/144 113/164/115 112/161/112 224/197/146
f 224/197/146 112/161/112 111/159/110 222/198/147
f 222/198/147 111/159/110 110/157/108 220/199/148
f 220/199/148 110/157/108 109/155/106 218/200/149
f 218/200/149 109/155/106 108/153/104 216/201/150
f 216/201/150 108/153/104 107/152/103 214/202/151
f 87/203/152 159/204/153 158/112/63 86/205/154
f 88/206/155 160/207/156 159/204/153 87/203/152
f 214/202/151 107/152/103 106/150/101 212/208/157
f 89/209/158 161/210/159 160/207/156 88/206/155
f 212/208/157 106/150/101 105/148/99 210/211/160
f 210/211/160 105/148/99 104/146/97 208/212/161
f 90/213/162 162/214/163 161/210/159 89/209/158
f 208/212/161 104/146/97 103/143/94 206/215/164
f 91/216/165 163/110/61 162/214/163 90/213/162
f 91/216/165 92/217/166 164/108/59 163/110/61
f 204/218/167 206/215/164 103/143/94 102/141/92
f 92/217/166 93/219/168 165/106/57 164/108/59
f 202/220/169 204/218/167 102/141/92 101/139/90
f 200/221/170 202/220/169 101/139/90 100/137/88
f 93/219/168 94/222/171 166/104/55 165/106/57
f 198/223/172 200/221/170 100/137/88 99/135/86
f 94/222/171 95/224/173 167/102/53 166/104/55
f 196/225/174 198/223/172 99/135/86 98/131/82
f 95/224/173 96/226/175 168/99/50 167/102/53
f 96/226/175 74/227/132 145/228/176 168/99/50
f 193/229/131 196/225/174 98/131/82 97/134/85
f 2/230/177 169/231/178 170/232/179 1/233/180
f 170/232/179 169/231/178 73/184/133 74/183/132
f 169/231/178 171/234/181 75/187/136 73/184/133
f 3/235/182 171/234/181 169/231/178 2/230/177
f 171/234/181 172/236/183 76/189/138 75/187/136
f 4/237/184 172/236/183 171/234/181 3/235/182
f 5/238/185 173/239/186 172/236/183 4/237/184
f 172/236/183 173/239/186 77/240/187 76/189/138
f 6/241/188 174/242/189 173/239/186 5/238/185
f 173/239/186 174/242/189 78/243/190 77/240/187
f 174/242/189 175/244/191 79/245/192 78/243/190
f 7/246/193 175/244/191 174/242/189 6/241/188
f 7/246/193 8/247/194 176/248/195 175/244/191
f 176/248/195 80/194/143 79/245/192 175/244/191
f 177/249/196 81/193/142 80/194/143 176/248/195
f 8/247/194 9/250/197 177/249/196 176/248/195
f 178/251/198 82/196/145 81/193/142 177/249/196
f 9/250/197 10/252/199 178/251/198 177/249/196
f 10/252/199 11/253/200 179/254/201 178/251/198
f 179/254/201 83/255/202 82/196/145 178/251/198
f 11/253/200 12/256/203 180/257/204 179/254/201
f 180/257/204 84/258/205 83/255/202 179/254/201
f 12/256/203 13/259/206 181/260/207 180/257/204
f 181/260/207 85/261/208 84/258/205 180/257/204
f 182/262/209 86/205/154 85/261/208 181/260/207
f 13/259/206 14/263/210 182/262/209 181/260/207
f 14/263/210 15/264/211 183/265/212 182/262/209
f 183/265/212 87/203/152 86/205/154 182/262/209
f 184/266/213 88/206/155 87/203/152 183/265/212
f 15/264/211 16/267/214 184/266/213 183/265/212
f 185/268/215 89/209/158 88/206/155 184/266/213
f 16/267/214 17/269/216 185/268/215 184/266/213
f 17/269/216 18/270/217 186/271/218 185/268/215
f 186/271/218 90/213/162 89/209/158 185/268/215
f 18/270/217 19/272/219 187/273/220 186/271/218
f 20/274/221 188/275/222 187/273/220 19/272/219
f 21/276/223 189/277/224 188/275/222 20/274/221
f 22/278/225 190/279/226 189/277/224 21/276/223
f 23/280/227 191/281/228 190/279/226 22/278/225
f 190/279/226 191/281/228 95/224/173 94/222/171
f 24/282/229 192/283/230 191/281/228 23/280/227
f 191/281/228 192/283/230 96/226/175 95/224/173
f 1/284/180 170/285/179 192/283/230 24/282/229
f 192/283/230 170/285/179 74/227/132 96/226/175
f 194/286/231 195/287/232 196/225/174 193/229/131
f 198/223/172 196/225/174 195/287/232 197/288/233
f 200/221/170 198/223/172 197/288/233 199/289/234
f 199/289/234 201/129/80 202/220/169 200/221/170
f 204/218/167 202/220/169 201/129/80 203/127/78
f 203/127/78 205/126/77 206/215/164 204/218/167
f 205/126/77 207/124/75 208/212/161 206/215/164
f 210/211/160 208/212/161 207/124/75 209/122/73
f 217/114/65 219/113/64 220/199/148 218/200/149
f 219/113/64 221/290/235 222/198/147 220/199/148
f 221/290/235 223/291/236 224/197/146 222/198/147
f 223/291/236 225/292/237 226/195/144 224/197/146
f 225/292/237 227/293/238 228/192/141 226/195/144
f 230/191/140 228/192/141 227/293/238 229/109/60
f 229/109/60 231/107/58 232/294/239 230/191/140
f 234/295/240 232/294/239 231/107/58 233/105/56
f 233/105/56 235/103/54 236/296/241 234/295/240
f 235/103/54 237/101/52 238/297/242 236/296/241
f 240/181/130 238/297/242 237/101/52 239/100/51
f 193/182/131 240/181/130 239/100/51 194/298/231
f 243/299/243 245/300/244 251/300/245 249/299/245
f 217/114/65 218/200/149 246/301/246 245/300/244
f 210/211/160 209/122/73 241/302/247 242/303/248
f 243/299/249 249/299/250 247/302/250 241/302/247
f 256/304/251 254/303/252 253/302/253 255/299/254
f 245/300/255 246/301/255 252/301/256 251/300/256
f 244/304/257 242/303/257 248/303/258 250/304/258
f 244/304/259 250/304/260 252/301/260 246/301/259
f 242/303/261 241/302/261 247/302/262 248/303/262
f 255/299/263 257/300/264 258/301/265 256/304/266
f 244/304/267 214/202/151 212/208/157 210/211/160 242/303/248
f 209/122/73 211/120/71 213/118/69 243/299/249 241/302/247
f 217/114/65 245/300/244 243/299/243 213/118/69 215/116/67
f 218/200/149 216/201/150 214/202/151 244/304/267 246/301/246
f 247/302/250 249/299/250 259/299/268 260/302/268
f 259/299/268 255/299/254 253/302/253 260/302/268
f 261/300/269 257/300/264 255/299/263 259/299/269
f 249/299/245 251/300/245 261/300/269 259/299/269
f 262/304/270 263/303/270 254/303/271 256/304/271
f 262/304/272 256/304/273 258/301/273 264/301/272
f 263/303/274 260/302/274 253/302/253 254/303/252
f 264/301/275 258/301/265 257/300/264 261/300/275
f 161/210/159 162/214/163 266/305/276 265/306/277
f 160/207/156 161/210/159 265/306/277 267/307/278
f 159/204/153 160/207/156 267/307/278 268/308/279
f 269/309/280 270/310/281 227/293/238 225/292/237
f 296/311/282 292/312/283 291/313/284 295/314/285
f 271/315/286 269/309/280 225/292/237 223/291/236
f 291/313/285 289/316/287 293/317/287 295/314/285
f 272/318/288 271/315/286 223/291/236 221/290/235
f 289/316/287 290/319/289 294/320/289 293/317/287
f 163/110/61 229/109/60 227/293/238 270/310/281 266/305/276 162/214/163
f 158/112/63 159/204/153 268/308/279 272/318/288 221/290/235 219/113/64
f 265/306/277 266/305/276 274/319/290 273/316/291
f 266/305/276 270/310/281 278/320/292 274/319/290
f 270/310/281 269/309/280 277/317/293 278/320/292
f 269/309/280 271/315/286 279/314/294 277/317/293
f 271/315/286 272/318/288 280/311/295 279/314/294
f 272/318/288 268/308/279 276/312/296 280/311/295
f 268/308/279 267/307/278 275/313/297 276/312/296
f 267/307/278 265/306/277 273/316/291 275/313/297
f 280/311/298 276/312/299 284/312/300 288/311/301
f 276/312/299 275/313/302 283/313/303 284/312/304
f 275/313/305 273/316/305 281/316/306 283/313/306
f 273/316/307 274/319/308 282/319/309 281/316/310
f 274/319/308 278/320/311 286/320/312 282/319/313
f 278/320/314 277/317/314 285/317/315 286/320/315
f 277/317/316 279/314/316 287/314/317 285/317/317
f 279/314/318 280/311/318 288/311/319 287/314/319
f 283/313/306 281/316/306 522/316/320 535/313/320
f 536/313/321 521/316/321 289/316/322 291/313/322
f 284/312/303 283/313/303 535/313/323 533/312/323
f 536/313/324 291/313/283 292/312/325 534/312/326
f 284/312/301 533/312/327 531/311/328 288/311/301
f 534/312/329 292/312/330 296/311/331 532/311/332
f 288/311/319 531/311/333 529/314/333 287/314/319
f 530/314/334 532/311/335 296/311/336 295/314/336
f 287/314/317 529/314/337 527/317/337 285/317/317
f 530/314/338 295/314/339 293/317/339 528/317/338
f 286/320/315 285/317/315 527/317/340 525/320/340
f 528/317/341 293/317/342 294/320/342 526/320/341
f 282/319/312 286/320/312 525/320/343 523/319/344
f 524/319/345 526/320/345 294/320/346 290/319/346
f 282/319/310 523/319/347 522/316/347 281/316/310
f 521/316/348 524/319/349 290/319/350 289/316/350
f 324/321/351 323/322/352 318/323/352 317/324/351
f 238/297/242 298/325/353 297/326/354 236/296/241
f 323/322/352 321/327/355 319/328/355 318/323/352
f 236/296/241 297/326/354 299/329/356 234/295/240
f 321/327/355 322/330/357 320/331/357 319/328/355
f 234/295/240 299/329/356 300/332/358 232/294/239
f 240/181/130 120/177/128 119/175/126 298/325/353 238/297/242
f 230/191/140 232/294/239 300/332/358 116/169/120 115/168/119
f 117/171/122 116/169/120 301/324/359 302/323/360
f 116/169/120 300/332/358 308/321/361 301/324/359
f 300/332/358 299/329/356 307/322/362 308/321/361
f 299/329/356 297/326/354 305/327/363 307/322/362
f 297/326/354 298/325/353 306/330/364 305/327/363
f 298/325/353 119/175/126 304/331/365 306/330/364
f 119/175/126 118/173/124 303/328/366 304/331/365
f 118/173/124 117/171/122 302/323/360 303/328/366
f 308/321/367 307/322/367 315/322/368 316/321/368
f 307/322/369 305/327/369 313/327/370 315/322/370
f 305/327/371 306/330/372 314/330/373 313/327/374
f 306/330/372 304/331/375 312/331/376 314/330/373
f 304/331/377 303/328/377 311/328/377 312/331/377
f 303/328/378 302/323/378 310/323/378 311/328/378
f 302/323/379 301/324/380 309/324/381 310/323/382
f 301/324/380 308/321/383 316/321/384 309/324/381
f 315/322/370 313/327/370 326/327/385 339/322/385
f 325/327/386 321/327/387 323/322/387 340/322/386
f 316/321/368 315/322/368 339/322/388 337/321/389
f 340/322/390 323/322/391 324/321/392 338/321/393
f 309/324/381 316/321/384 337/321/394 335/324/395
f 328/330/396 330/331/397 320/331/398 322/330/399
f 314/330/373 327/330/400 326/327/401 313/327/374
f 325/327/402 328/330/396 322/330/399 321/327/403
f 326/327/401 327/330/400 328/330/396 325/327/402
f 327/330/400 329/331/404 330/331/397 328/330/396
f 332/328/405 330/331/405 329/331/406 331/328/407
f 334/323/408 332/328/408 331/328/409 333/323/410
f 336/324/411 334/323/412 333/323/413 335/324/414
f 338/321/393 336/324/411 335/324/395 337/321/415
f 340/322/390 338/321/393 337/321/389 339/322/388
f 325/327/386 340/322/386 339/322/385 326/327/385
f 356/190/416 357/333/417 358/334/418 355/188/419
f 341/333/420 199/289/234 197/288/233 342/334/421
f 355/188/419 358/334/418 359/335/422 354/185/422
f 342/334/421 197/288/233 195/287/232 343/335/423
f 354/185/422 359/335/422 360/336/424 353/186/424
f 343/335/423 195/287/232 194/286/231 344/336/425
f 168/99/50 145/228/176 344/337/426 194/298/231 239/100/51
f 149/130/81 201/129/80 199/289/234 341/333/420 148/190/139
f 145/186/176 146/185/134 346/185/427 345/186/428
f 146/185/134 147/188/137 347/188/429 346/185/427
f 147/188/137 148/190/139 348/190/430 347/188/429
f 148/190/139 341/333/420 349/333/431 348/190/430
f 341/333/420 342/334/421 350/334/432 349/333/431
f 342/334/421 343/335/423 351/335/433 350/334/432
f 343/335/423 344/336/426 352/336/434 351/335/433
f 344/336/435 145/186/436 345/186/428 352/336/434
f 361/335/437 359/335/438 358/334/439 376/334/440
f 349/333/441 350/334/442 375/334/443 373/333/444
f 376/334/445 358/334/446 357/333/446 374/333/445
f 349/333/447 373/333/448 371/190/449 348/190/447
f 372/190/450 374/333/451 357/333/417 356/190/416
f 348/190/452 371/190/453 369/188/454 347/188/452
f 370/188/455 372/190/450 356/190/416 355/188/419
f 347/188/456 369/188/457 367/185/457 346/185/456
f 368/185/458 370/188/458 355/188/459 354/185/459
f 366/186/460 368/185/461 354/185/462 353/186/463
f 366/186/460 353/186/463 360/336/464 364/336/465
f 364/336/466 360/336/467 359/335/438 361/335/437
f 362/335/468 363/336/469 364/336/466 361/335/437
f 363/336/470 365/186/471 366/186/460 364/336/465
f 365/186/472 367/185/473 368/185/461 366/186/460
f 370/188/458 368/185/458 367/185/457 369/188/474
f 372/190/450 370/188/455 369/188/453 371/190/475
f 374/333/451 372/190/450 371/190/449 373/333/448
f 376/334/445 374/333/445 373/333/444 375/334/443
f 361/335/437 376/334/440 375/334/443 362/335/476
f 83/255/202 84/258/205 377/338/477 378/339/478
f 84/258/205 85/261/208 379/340/479 377/338/477
f 393/341/480 390/342/480 389/343/480 392/344/480
f 380/345/481 156/115/66 155/117/68 381/346/482
f 389/343/483 391/347/483 394/348/483 392/344/483
f 382/349/484 157/111/62 156/115/66 380/345/481
f 82/196/145 83/255/202 378/339/478 381/346/482 155/117/68 154/119/70
f 86/205/154 158/112/63 157/111/62 382/349/484 379/340/479 85/261/208
f 378/339/485 377/338/485 383/350/486 384/351/486
f 377/338/487 379/340/487 385/352/488 383/350/488
f 379/340/489 382/349/489 388/353/490 385/352/490
f 382/349/491 380/345/491 386/354/492 388/353/492
f 380/345/493 381/346/493 387/355/494 386/354/494
f 381/346/495 378/339/495 384/351/496 387/355/496
f 383/350/488 385/352/488 391/347/497 389/343/497
f 385/352/490 388/353/490 394/348/498 391/347/498
f 388/353/492 386/354/492 392/344/499 394/348/499
f 386/354/494 387/355/494 393/341/500 392/344/500
f 387/355/496 384/351/496 390/342/501 393/341/501
f 384/351/486 383/350/486 389/343/502 390/342/502
f 395/356/503 396/357/504 150/128/79 149/130/81
f 405/243/505 408/357/505 407/356/506 404/240/506
f 396/357/504 397/358/507 151/125/76 150/128/79
f 406/245/508 409/358/508 408/357/505 405/243/505
f 76/189/138 77/240/187 395/356/503 149/130/81 148/190/139
f 80/194/143 152/123/74 151/125/76 397/358/507 79/245/192
f 77/240/509 78/243/509 399/243/510 398/240/510
f 78/243/511 79/245/511 400/245/512 399/243/512
f 79/245/513 397/358/513 403/358/514 400/245/514
f 397/358/515 396/357/515 402/357/515 403/358/515
f 396/357/516 395/356/516 401/356/516 402/357/516
f 395/356/517 77/240/517 398/240/518 401/356/518
f 411/358/519 409/358/520 406/245/520 410/245/519
f 400/245/514 403/358/514 411/358/519 410/245/519
f 412/357/521 408/357/522 409/358/522 411/358/521
f 402/357/523 412/357/521 411/358/521 403/358/523
f 412/357/524 413/356/524 407/356/525 408/357/525
f 401/356/526 413/356/524 412/357/524 402/357/526
f 413/356/527 414/240/527 404/240/528 407/356/528
f 398/240/518 414/240/527 413/356/527 401/356/518
f 414/240/529 415/243/529 405/243/530 404/240/530
f 398/240/510 399/243/510 415/243/529 414/240/529
f 410/245/531 406/245/532 405/243/532 415/243/531
f 399/243/512 400/245/512 410/245/531 415/243/531
f 416/359/533 417/360/534 92/217/166 91/216/165
f 417/360/535 418/361/536 93/219/168 92/217/166
f 439/362/537 436/363/537 435/364/538 438/365/538
f 187/273/220 188/275/222 420/366/539 419/367/540
f 438/365/538 435/364/538 434/368/541 437/369/541
f 188/275/222 189/277/224 421/370/542 420/366/539
f 186/271/218 187/273/220 419/367/543 416/359/544 91/216/165 90/213/162
f 190/279/226 94/222/171 93/219/168 418/361/536 421/370/542 189/277/224
f 417/360/545 416/359/545 422/368/545 423/364/545
f 416/359/546 419/367/546 425/369/547 422/368/547
f 419/367/548 420/366/549 426/365/549 425/369/549
f 420/366/550 421/370/550 427/362/551 426/365/551
f 421/370/542 418/361/536 424/363/552 427/362/553
f 418/361/536 417/360/554 423/364/555 424/363/556
f 429/364/557 428/368/558 434/368/559 435/364/560
f 428/368/558 431/369/561 437/369/562 434/368/559
f 431/369/563 432/365/564 438/365/565 437/369/562
f 432/365/566 433/362/567 439/362/568 438/365/569
f 433/362/567 430/363/570 436/363/571 439/362/568
f 430/363/572 429/364/573 435/364/574 436/363/571
f 440/362/575 441/363/575 430/363/570 433/362/567
f 424/363/553 441/363/575 440/362/575 427/362/553
f 442/364/576 429/364/573 430/363/573 441/363/576
f 424/363/555 423/364/555 442/364/576 441/363/576
f 443/368/577 428/368/558 429/364/557 442/364/577
f 423/364/578 422/368/578 443/368/577 442/364/577
f 444/369/579 431/369/561 428/368/558 443/368/579
f 422/368/580 425/369/580 444/369/579 443/368/579
f 444/369/581 445/365/581 432/365/564 431/369/564
f 426/365/582 445/365/581 444/369/581 425/369/582
f 445/365/583 440/362/583 433/362/567 432/365/566
f 427/362/551 440/362/583 445/365/583 426/365/551
f 336/324/411 447/324/584 446/323/585 334/323/412
f 334/323/408 446/323/586 448/328/587 332/328/408
f 449/323/588 450/324/589 317/324/589 318/323/588
f 452/323/590 455/323/591 457/328/592 454/328/593
f 451/328/594 449/323/595 318/323/595 319/328/595
f 453/324/596 456/324/597 455/323/591 452/323/590
f 338/321/393 324/321/392 317/324/589 450/324/589 447/324/584 336/324/411
f 330/331/405 332/328/405 448/328/598 451/328/598 319/328/599 320/331/599
f 450/324/600 449/323/600 455/323/600 456/324/600
f 449/323/601 451/328/601 457/328/601 455/323/601
f 451/328/602 448/328/603 454/328/604 457/328/605
f 458/303/606 263/303/270 262/304/270 459/304/606
f 460/301/607 459/304/608 262/304/272 264/301/272
f 248/303/258 461/303/609 462/304/610 250/304/258
f 473/371/611 470/303/612 471/372/612 474/373/611
f 250/304/260 462/304/613 463/301/614 252/301/260
f 471/372/615 472/374/615 475/301/615 474/373/615
f 247/302/262 260/302/274 263/303/274 458/303/616 461/303/616 248/303/262
f 251/300/256 252/301/256 463/301/617 460/301/617 264/301/275 261/300/275
f 458/303/618 459/304/619 465/372/619 464/303/618
f 459/304/619 460/301/620 466/374/620 465/372/619
f 460/301/621 463/301/622 469/301/623 466/374/623
f 463/301/624 462/304/625 468/373/626 469/301/627
f 462/304/625 461/303/628 467/371/629 468/373/626
f 461/303/630 458/303/616 464/303/631 467/371/631
f 476/372/632 477/374/633 472/374/634 471/372/635
f 466/374/636 477/374/633 476/372/632 465/372/637
f 477/374/638 478/301/638 475/301/639 472/374/639
f 469/301/623 478/301/638 477/374/638 466/374/623
f 479/373/640 474/373/641 475/301/642 478/301/643
f 469/301/627 468/373/626 479/373/640 478/301/643
f 479/373/640 480/371/644 473/371/611 474/373/645
f 467/371/629 480/371/644 479/373/640 468/373/626
f 481/303/646 470/303/647 473/371/647 480/371/646
f 467/371/631 464/303/631 481/303/646 480/371/646
f 476/372/632 471/372/635 470/303/648 481/303/649
f 464/303/650 465/372/637 476/372/632 481/303/649
f 482/323/651 333/323/652 331/328/653 483/328/654
f 483/328/654 331/328/653 329/331/406 484/331/655
f 310/323/656 485/323/657 486/328/658 311/328/659
f 497/375/660 494/323/661 495/376/662 498/377/663
f 495/376/662 496/378/664 499/331/664 498/377/663
f 312/331/665 311/328/659 486/328/658 487/331/666
f 309/324/381 335/324/413 333/323/667 482/323/668 485/323/669 310/323/670
f 314/330/373 312/331/376 487/331/671 484/331/671 329/331/404 327/330/400
f 482/323/672 483/328/672 489/376/673 488/323/673
f 483/328/674 484/331/674 490/378/674 489/376/674
f 484/331/671 487/331/675 493/331/676 490/378/676
f 487/331/677 486/328/658 492/377/678 493/331/679
f 486/328/658 485/323/680 491/375/681 492/377/678
f 485/323/668 482/323/668 488/323/682 491/375/682
f 450/324/683 456/324/683 453/324/683 447/324/683
f 452/323/590 446/323/684 447/324/685 453/324/596
f 448/328/587 446/323/686 452/323/590 454/328/687
f 500/376/688 501/378/689 496/378/690 495/376/691
f 490/378/692 501/378/689 500/376/688 489/376/693
f 501/378/689 502/331/694 499/331/695 496/378/690
f 493/331/696 502/331/694 501/378/689 490/378/692
f 503/377/697 498/377/663 499/331/698 502/331/699
f 493/331/679 492/377/678 503/377/697 502/331/699
f 504/375/700 497/375/660 498/377/663 503/377/697
f 492/377/678 491/375/681 504/375/700 503/377/697
f 505/323/701 494/323/702 497/375/702 504/375/701
f 491/375/682 488/323/682 505/323/701 504/375/701
f 505/323/703 500/376/703 495/376/704 494/323/704
f 489/376/673 500/376/703 505/323/703 488/323/673
f 518/379/705 519/380/706 517/186/706 516/381/705
f 345/186/707 507/186/708 506/336/708 352/336/707
f 352/336/709 506/336/710 508/335/711 351/335/712
f 520/335/713 518/379/705 516/381/705 515/382/713
f 350/334/442 351/335/712 508/335/711 362/335/476 375/334/443
f 346/185/714 367/185/473 365/186/715 507/186/716 345/186/714
f 363/336/717 362/335/718 509/382/718 510/381/719
f 362/335/720 508/335/711 514/335/721 509/382/721
f 508/335/711 506/336/710 512/379/722 514/335/722
f 506/336/708 507/186/708 513/380/723 512/379/723
f 507/186/716 365/186/715 511/186/724 513/380/724
f 365/186/725 363/336/717 510/381/719 511/186/726
f 514/335/722 512/379/727 518/379/728 520/335/729
f 512/379/730 513/380/723 519/380/731 518/379/728
f 513/380/724 511/186/724 517/186/732 519/380/732
f 511/186/726 510/381/719 516/381/733 517/186/733
f 510/381/734 509/382/734 515/382/734 516/381/734
f 509/382/721 514/335/721 520/335/735 515/382/735
f 522/316/347 523/319/736 524/319/348 521/316/348
f 523/319/343 525/320/343 526/320/345 524/319/737
f 525/320/340 527/317/340 528/317/341 526/320/341
f 530/314/338 528/317/338 527/317/337 529/314/337
f 532/311/335 530/314/334 529/314/333 531/311/738
f 534/312/739 532/311/740 531/311/328 533/312/741
f 536/313/324 534/312/329 533/312/742 535/313/323
f 521/316/321 536/313/321 535/313/320 522/316/320
f 133/156/107 537/383/743 538/384/744 132/154/105
f 554/385/745 553/386/745 550/387/746 549/388/746
f 134/158/109 539/389/747 537/383/748 133/156/107
f 555/390/749 551/391/749 550/387/750 553/386/750
f 135/160/111 540/392/751 539/389/752 134/158/109
f 552/393/753 551/391/749 555/390/754 556/394/755
f 131/151/102 132/154/105 538/384/744 60/71/25 59/69/23
f 136/162/113 64/79/32 63/77/31 540/392/756 135/160/111
f 61/73/757 60/71/757 541/388/758 542/387/758
f 60/71/759 538/384/759 546/385/760 541/388/761
f 538/384/744 537/383/762 545/386/763 546/385/764
f 537/383/765 539/389/766 547/390/767 545/386/763
f 539/389/768 540/392/756 548/394/769 547/390/770
f 540/392/771 63/77/31 544/393/772 548/394/773
f 63/77/774 62/75/775 543/391/776 544/393/777
f 62/75/778 61/73/778 542/387/779 543/391/779
f 558/391/780 551/391/781 552/393/782 557/393/783
f 544/393/784 543/391/776 558/391/780 557/393/783
f 559/387/785 550/387/786 551/391/786 558/391/785
f 543/391/779 542/387/779 559/387/785 558/391/785
f 559/387/787 560/388/788 549/388/789 550/387/790
f 541/388/791 560/388/788 559/387/787 542/387/758
f 561/385/792 554/385/793 549/388/789 560/388/788
f 541/388/761 546/385/760 561/385/792 560/388/788
f 562/386/794 553/386/745 554/385/795 561/385/792
f 546/385/796 545/386/763 562/386/794 561/385/792
f 562/386/797 563/390/797 555/390/798 553/386/798
f 547/390/767 563/390/797 562/386/797 545/386/763
f 563/390/799 564/394/800 556/394/755 555/390/801
f 548/394/773 564/394/800 563/390/799 547/390/802
f 564/394/800 557/393/783 552/393/803 556/394/755
f 544/393/804 557/393/783 564/394/800 548/394/805
f 565/395/806 566/396/807 50/49/3 49/52/6
f 566/396/807 567/397/808 51/53/7 50/49/3
f 567/397/808 568/398/809 52/55/9 51/53/7
f 121/132/83 569/399/810 570/400/811 122/133/84
f 581/401/812 586/402/812 585/403/813 582/404/813
f 123/136/87 571/405/814 569/399/810 121/132/83
f 585/403/813 587/406/815 583/407/815 582/404/813
f 124/138/89 572/408/816 571/405/814 123/136/87
f 587/406/815 588/409/817 584/410/817 583/407/815
f 125/140/91 53/57/11 52/55/9 568/398/809 572/408/816 124/138/89
f 144/178/129 122/180/84 570/411/818 565/412/819 49/97/6 72/95/48
f 566/396/820 565/395/821 573/401/822 574/404/823
f 565/395/824 570/400/824 578/402/825 573/401/826
f 570/400/827 569/399/828 577/403/829 578/402/830
f 569/399/828 571/405/831 579/406/832 577/403/829
f 571/405/831 572/408/833 580/409/834 579/406/835
f 572/408/836 568/398/836 576/410/837 580/409/838
f 568/398/839 567/397/840 575/407/841 576/410/842
f 567/397/840 566/396/820 574/404/843 575/407/844
f 579/406/834 580/409/845 588/409/846 587/406/847
f 580/409/838 576/410/837 584/410/848 588/409/846
f 576/410/849 575/407/842 583/407/850 584/410/848
f 575/407/851 574/404/851 582/404/852 583/407/852
f 574/404/822 573/401/853 581/401/854 582/404/855
f 573/401/856 578/402/825 586/402/857 581/401/854
f 578/402/858 577/403/829 585/403/859 586/402/857
f 577/403/829 579/406/860 587/406/861 585/403/861

o Mesh (9)
mtllib Tree_1.mtl
